<svg xmlns="http://www.w3.org/2000/svg" xmlns:xlink="http://www.w3.org/1999/xlink" width="500" zoomAndPan="magnify" viewBox="0 0 375 374.999991" height="500" preserveAspectRatio="xMidYMid meet" version="1.0"><defs><g/><clipPath id="28f7a97241"><path d="M 112.5 125.863281 L 262.5 125.863281 L 262.5 248.863281 L 112.5 248.863281 Z M 112.5 125.863281 " clip-rule="nonzero"/></clipPath><clipPath id="0ab3bbcee3"><path d="M 92.367188 92.367188 L 282.867188 92.367188 L 282.867188 282.867188 L 92.367188 282.867188 Z M 92.367188 92.367188 " clip-rule="nonzero"/></clipPath></defs><g clip-path="url(#28f7a97241)"><path fill="#000000" d="M 174.875 125.863281 L 181.257812 125.863281 C 182.40625 125.992188 183.554688 126.117188 184.703125 126.234375 C 192.953125 127.074219 200.882812 130.078125 207.316406 135.445312 C 207.910156 135.941406 208.570312 136.683594 209.246094 137.261719 C 209.324219 137.324219 209.414062 137.359375 209.515625 137.363281 C 210.644531 137.398438 211.867188 137.320312 212.914062 137.617188 C 216.628906 138.671875 219.234375 141.863281 219.699219 145.660156 C 219.714844 145.773438 219.714844 146.546875 219.699219 147.980469 C 219.671875 150.722656 220.941406 152.804688 223.503906 154.234375 C 226.347656 155.8125 229.09375 157.015625 231.75 157.84375 C 237.335938 159.582031 242.96875 161.148438 248.652344 162.539062 C 251.183594 163.15625 252.960938 163.457031 253.984375 163.4375 C 257.171875 163.375 260.164062 163.71875 261.445312 166.949219 C 261.804688 167.847656 262.117188 169.609375 262.382812 172.234375 L 262.382812 175.105469 C 262.078125 178.414062 260.8125 180.347656 259.046875 182.785156 C 258.988281 182.863281 258.957031 182.953125 258.953125 183.054688 C 258.820312 187.378906 258.148438 190.980469 255.148438 194.160156 C 253.628906 195.773438 251.324219 197.003906 249.269531 198.007812 C 249.03125 198.125 248.890625 198.3125 248.847656 198.570312 C 247.597656 205.847656 241.792969 211.230469 234.464844 212.0625 C 233.007812 212.230469 231.6875 212.488281 230.125 212.199219 C 229.695312 212.117188 229.140625 212.066406 228.457031 212.050781 C 227.660156 212.03125 226.925781 211.789062 226.207031 211.757812 C 220.625 211.515625 215.355469 211.484375 210.195312 212.414062 C 203.320312 213.65625 194.957031 218.175781 192.4375 225.011719 C 192.1875 225.683594 192.042969 226.484375 192.003906 227.40625 C 191.886719 230.234375 191.863281 232.34375 190.96875 234.8125 C 189.171875 239.75 186.835938 244.421875 183.960938 248.820312 C 183.941406 248.851562 183.914062 248.859375 183.882812 248.84375 C 183.851562 248.828125 183.839844 248.804688 183.851562 248.773438 C 186.085938 241.964844 188.042969 235.035156 188.453125 227.847656 C 188.535156 226.402344 188.6875 225.296875 188.917969 224.53125 C 190.351562 219.757812 194.53125 215.589844 198.695312 213.03125 C 202.511719 210.679688 206.824219 209.195312 211.632812 208.578125 C 217.097656 207.878906 222.191406 207.777344 226.921875 208.269531 C 229.644531 208.550781 231.695312 208.664062 233.074219 208.601562 C 238.824219 208.355469 244.800781 204.289062 245.285156 198.207031 C 245.320312 197.800781 245.160156 197.699219 244.800781 197.898438 C 238.164062 201.621094 229.582031 205.417969 221.890625 204.390625 C 219.054688 204.011719 216.355469 203.195312 213.796875 201.933594 C 210.859375 200.488281 208.707031 199.4375 207.339844 198.777344 C 202.09375 196.257812 195.652344 196.097656 190.632812 199.25 C 190.582031 199.289062 190.535156 199.28125 190.496094 199.230469 C 190.457031 199.175781 190.460938 199.132812 190.515625 199.09375 C 195.742188 194.246094 203.609375 193.84375 209.820312 196.902344 C 213.460938 198.703125 217.113281 200.644531 220.625 201.460938 C 228.601562 203.3125 237.492188 200.230469 244.515625 196.488281 C 246.628906 195.359375 248.75 194.246094 250.886719 193.152344 C 253.972656 191.566406 255.507812 187.257812 255.402344 184.046875 C 255.378906 183.324219 255.011719 182.679688 254.296875 182.121094 C 252.277344 180.53125 250.136719 179.117188 247.875 177.875 C 246.394531 177.066406 245.304688 175.945312 244.722656 174.339844 C 243.269531 170.34375 246.175781 168.710938 248.953125 166.742188 C 249.335938 166.46875 249.296875 166.28125 248.839844 166.167969 C 242.25 164.582031 235.707031 162.746094 229.21875 160.667969 C 227.050781 159.972656 224.855469 158.984375 222.628906 157.707031 C 218.789062 155.496094 216.339844 153.195312 216.328125 148.765625 C 216.320312 147.0625 216.316406 146.210938 216.316406 146.207031 C 215.8125 142.609375 213.039062 140.417969 209.378906 140.9375 C 209.261719 140.957031 209.230469 141.015625 209.289062 141.121094 C 209.566406 141.609375 209.652344 142.140625 209.542969 142.71875 C 209.535156 142.757812 209.542969 142.796875 209.5625 142.835938 L 209.671875 143.03125 C 209.691406 143.09375 209.675781 143.140625 209.617188 143.171875 C 209.5625 143.203125 209.511719 143.195312 209.472656 143.144531 C 205.449219 136.339844 196.847656 132.109375 189.382812 130.507812 C 185.082031 129.585938 181.652344 129.371094 177.332031 129.398438 C 175.371094 129.410156 173.765625 129.503906 172.511719 129.675781 C 169.519531 130.09375 166.609375 130.871094 163.785156 132.011719 C 163.160156 132.265625 162.125 132.414062 160.675781 132.453125 C 159.246094 132.492188 157.015625 132.160156 155.425781 132.40625 C 152.867188 132.808594 150.75 133.96875 149.078125 135.890625 C 148.589844 136.453125 148.0625 137.296875 147.488281 138.425781 C 146.324219 140.730469 145.214844 142.875 143.347656 144.925781 C 142.683594 145.65625 141.546875 146.734375 139.933594 148.167969 C 135.6875 151.945312 131.511719 155.800781 127.40625 159.734375 C 125.210938 161.835938 118.902344 168.246094 122.964844 171.203125 C 125.121094 172.773438 126.851562 174.695312 128.148438 176.960938 C 129.121094 178.644531 130.394531 181.203125 131.652344 182.980469 C 136.214844 189.4375 142.855469 195.105469 149.347656 199.558594 C 151.121094 200.773438 153.371094 202.054688 155.101562 202.746094 C 160.75 205.003906 166.175781 201.722656 169.046875 196.914062 C 171.398438 192.972656 172.730469 188.484375 173.039062 183.449219 C 173.363281 178.195312 172.742188 173.058594 171.175781 168.035156 C 170.226562 164.988281 168.957031 161.339844 167.363281 157.09375 C 166.386719 154.488281 165.824219 151.707031 165.683594 148.75 C 165.632812 147.710938 165.847656 146.628906 165.9375 145.523438 C 166.289062 141.429688 168.722656 137.4375 171.761719 134.730469 C 171.789062 134.703125 171.820312 134.703125 171.851562 134.726562 C 171.878906 134.75 171.886719 134.78125 171.871094 134.816406 C 169.390625 139.5 168.042969 145.304688 168.851562 150.589844 C 169.367188 153.941406 171.164062 158.25 172.371094 161.96875 C 175.410156 171.324219 175.949219 180.828125 173.996094 190.484375 C 173.15625 194.640625 171.3125 199.152344 168.359375 202.089844 C 165.179688 205.261719 161.0625 206.5 156.003906 205.8125 C 153.640625 205.492188 152.074219 205.007812 149.929688 203.761719 C 144.375 200.523438 139.324219 196.511719 134.78125 191.722656 C 134.703125 191.640625 134.609375 191.617188 134.503906 191.644531 C 134.394531 191.671875 134.328125 191.738281 134.300781 191.84375 C 132.191406 199.585938 129.628906 207.238281 126.605469 214.796875 C 122.433594 225.246094 117.902344 235.714844 112.714844 245.707031 C 112.683594 245.769531 112.644531 245.773438 112.605469 245.714844 C 112.582031 245.675781 112.582031 245.632812 112.605469 245.582031 C 119.148438 229.238281 124.910156 212.472656 129.089844 195.359375 C 129.695312 192.890625 130.207031 190.457031 130.625 188.054688 C 130.683594 187.730469 130.605469 187.433594 130.394531 187.175781 C 128.410156 184.75 127 182.082031 125.421875 179.351562 C 124.125 177.113281 122.808594 175.566406 120.960938 173.984375 C 119.96875 173.140625 119.332031 172.5 119.0625 172.074219 C 117.914062 170.277344 118.121094 168.394531 118.59375 166.410156 C 119.269531 163.582031 121.835938 160.449219 123.898438 158.453125 C 128.476562 154.011719 133.132812 149.648438 137.867188 145.371094 C 140.066406 143.386719 142.214844 141.265625 143.300781 139.035156 C 144.226562 137.125 145.128906 135.058594 146.503906 133.550781 C 149.015625 130.789062 152.148438 129.1875 155.90625 128.734375 C 157.34375 128.5625 159.1875 128.863281 160.875 128.820312 C 163.113281 128.769531 165.488281 127.570312 167.644531 127.027344 C 169.355469 126.59375 170.742188 126.324219 171.804688 126.222656 C 173.390625 126.070312 174.414062 125.949219 174.875 125.863281 Z M 258.355469 177.265625 C 258.441406 176.972656 258.535156 176.683594 258.628906 176.402344 C 258.738281 176.089844 258.808594 175.796875 258.832031 175.527344 C 259.050781 173.390625 258.902344 171.171875 258.390625 168.871094 C 258.226562 168.128906 257.972656 167.5 257.175781 167.316406 C 255.605469 166.953125 254.074219 167.023438 252.460938 166.902344 C 251.464844 166.828125 250.953125 167.0625 250.160156 167.5625 C 248.78125 168.429688 245.875 170.144531 245.75 171.761719 C 245.5625 174.09375 246.539062 175.683594 248.679688 176.53125 C 249.738281 176.953125 250.726562 176.902344 251.640625 176.378906 C 252.867188 175.675781 252.566406 173.847656 253.074219 172.65625 C 253.898438 170.730469 255.902344 170.890625 256.671875 172.722656 C 257.539062 174.765625 257.144531 176.871094 256.902344 179.089844 C 256.894531 179.175781 256.925781 179.238281 257.003906 179.273438 C 257.082031 179.3125 257.152344 179.300781 257.210938 179.238281 C 257.75 178.695312 258.132812 178.039062 258.355469 177.265625 Z M 254.882812 179.164062 C 255.035156 179.167969 255.1875 179.09375 255.335938 178.945312 C 255.484375 178.792969 255.617188 178.578125 255.734375 178.292969 C 255.855469 178.011719 255.949219 177.683594 256.019531 177.308594 C 256.089844 176.9375 256.132812 176.546875 256.144531 176.144531 C 256.15625 175.738281 256.136719 175.347656 256.089844 174.972656 C 256.039062 174.597656 255.964844 174.261719 255.863281 173.972656 C 255.761719 173.683594 255.644531 173.460938 255.503906 173.300781 C 255.363281 173.140625 255.21875 173.058594 255.0625 173.054688 C 254.90625 173.050781 254.753906 173.121094 254.605469 173.273438 C 254.460938 173.425781 254.324219 173.640625 254.207031 173.925781 C 254.089844 174.207031 253.996094 174.535156 253.925781 174.90625 C 253.851562 175.28125 253.8125 175.667969 253.800781 176.074219 C 253.789062 176.480469 253.804688 176.871094 253.855469 177.246094 C 253.902344 177.621094 253.976562 177.953125 254.078125 178.242188 C 254.179688 178.535156 254.300781 178.757812 254.441406 178.917969 C 254.578125 179.078125 254.726562 179.160156 254.882812 179.164062 Z M 254.882812 179.164062 " fill-opacity="1" fill-rule="nonzero"/></g><path fill="#000000" d="M 194.230469 157.832031 C 194.128906 157.941406 194.136719 158.042969 194.246094 158.136719 C 195.777344 159.457031 197.484375 160.464844 199.371094 161.167969 C 201.9375 162.128906 204.71875 162.023438 207.710938 160.855469 C 207.722656 160.847656 207.734375 160.851562 207.742188 160.855469 C 207.75 160.863281 207.753906 160.875 207.753906 160.886719 C 207.714844 161.171875 207.574219 161.414062 207.335938 161.613281 C 204.765625 163.777344 201.28125 163.941406 198.210938 162.972656 C 194.996094 161.957031 192.667969 159.558594 189.160156 159.246094 C 189.121094 159.242188 189.097656 159.222656 189.089844 159.183594 C 189.082031 159.148438 189.09375 159.117188 189.125 159.097656 C 191.253906 157.730469 193.152344 156.085938 194.820312 154.160156 C 196.152344 152.617188 198.503906 150.746094 200.398438 150.269531 C 205.179688 149.058594 206.207031 154.625 209.175781 156.714844 C 209.90625 157.230469 210.734375 157.597656 211.667969 157.820312 C 211.746094 157.835938 211.785156 157.886719 211.78125 157.964844 C 211.777344 158.046875 211.734375 158.089844 211.652344 158.097656 C 210.910156 158.195312 210.132812 158.453125 209.460938 158.460938 C 206.160156 158.503906 205.878906 155.367188 203.769531 153.695312 C 200.570312 151.164062 196.21875 155.753906 194.230469 157.832031 Z M 194.230469 157.832031 " fill-opacity="1" fill-rule="nonzero"/><path fill="#000000" d="M 149.34375 162.308594 C 149.464844 161.855469 149.585938 161.398438 149.710938 160.945312 C 149.722656 160.894531 149.757812 160.871094 149.808594 160.875 C 149.863281 160.882812 149.894531 160.910156 149.894531 160.964844 C 150.03125 162.90625 149.648438 164.871094 149.640625 166.679688 C 149.632812 169.058594 149.320312 171.550781 149.324219 173.746094 C 149.324219 175.585938 149.324219 177.410156 149.324219 179.222656 C 149.320312 179.261719 149.300781 179.28125 149.265625 179.289062 C 149.226562 179.296875 149.203125 179.28125 149.1875 179.246094 C 147.402344 173.957031 147.328125 168.65625 148.964844 163.351562 C 148.96875 163.332031 148.996094 163.210938 149.042969 162.984375 C 149.09375 162.71875 149.277344 162.566406 149.34375 162.308594 Z M 149.34375 162.308594 " fill-opacity="1" fill-rule="nonzero"/><path fill="#000000" d="M 146.457031 192.765625 C 146.527344 192.832031 146.570312 192.894531 146.59375 192.941406 C 146.617188 193 146.601562 193.046875 146.554688 193.085938 C 146.507812 193.125 146.457031 193.125 146.410156 193.089844 C 142.238281 190.199219 138.8125 186.664062 136.132812 182.484375 C 135.320312 181.214844 134.308594 179.363281 133.097656 176.921875 C 130.980469 172.664062 127.898438 169.796875 124.03125 167.132812 C 123.984375 167.101562 123.949219 167.066406 123.925781 167.023438 C 123.886719 166.960938 123.863281 166.914062 123.851562 166.878906 C 123.832031 166.832031 123.839844 166.789062 123.871094 166.75 C 123.90625 166.710938 123.949219 166.695312 124 166.703125 C 135.457031 168.746094 140.246094 178.308594 144.136719 188.015625 C 144.800781 189.667969 145.535156 191.09375 146.324219 192.597656 C 146.355469 192.652344 146.398438 192.710938 146.457031 192.765625 Z M 146.457031 192.765625 " fill-opacity="1" fill-rule="nonzero"/><path fill="#000000" d="M 167.609375 244.636719 C 166.8125 243.898438 165.984375 243 165.121094 241.933594 C 158.28125 233.503906 154.679688 223.261719 153.710938 212.523438 C 153.710938 212.488281 153.726562 212.464844 153.761719 212.453125 C 153.796875 212.441406 153.820312 212.453125 153.839844 212.484375 C 159.824219 222.625 165.09375 232.921875 167.730469 244.5625 C 167.765625 244.71875 167.722656 244.742188 167.609375 244.636719 Z M 167.609375 244.636719 " fill-opacity="1" fill-rule="nonzero"/><g clip-path="url(#0ab3bbcee3)"><path fill="#ec9e16" d="M 187.5 282.632812 C 134.941406 282.632812 92.367188 239.765625 92.367188 187.5 C 92.367188 135.234375 134.941406 92.367188 187.5 92.367188 C 240.058594 92.367188 282.632812 134.941406 282.632812 187.5 C 282.632812 240.058594 239.765625 282.632812 187.5 282.632812 Z M 187.5 98.238281 C 138.171875 98.238281 98.238281 138.171875 98.238281 187.5 C 98.238281 236.828125 138.171875 276.761719 187.5 276.761719 C 236.828125 276.761719 276.761719 236.828125 276.761719 187.5 C 276.761719 138.171875 236.535156 98.238281 187.5 98.238281 Z M 187.5 98.238281 " fill-opacity="1" fill-rule="nonzero"/></g><g fill="#010038" fill-opacity="1"><g transform="translate(85.572062, 213.102542)"><g><path d="M -0.421875 -42.640625 L -0.328125 -33.78125 L -16.703125 -27.375 L -0.203125 -21.296875 L -0.125 -12.4375 L -25.296875 -0.015625 L -25.40625 -10.78125 L -9.390625 -17.28125 L -25.53125 -23.9375 L -25.59375 -30.640625 L -9.59375 -37.59375 L -25.734375 -43.796875 L -25.84375 -54.5625 Z M -0.421875 -42.640625 "/></g></g></g><g fill="#010038" fill-opacity="1"><g transform="translate(85.544963, 161.98697)"><g><path d="M 17.28125 -38.84375 L 12.90625 -29.015625 L 8.15625 -28.53125 L 1.671875 -13.9375 L 4.484375 -10.078125 L 0.109375 -0.25 L -16.421875 -25.3125 L -12.421875 -34.328125 Z M 0.953125 -27.796875 L -7.828125 -26.890625 L -2.609375 -19.75 Z M 0.953125 -27.796875 "/></g></g></g><g fill="#010038" fill-opacity="1"><g transform="translate(101.37322, 125.868784)"><g><path d="M 13.765625 -13.3125 C 9.390625 -8.832031 5.25 -6.4375 1.34375 -6.125 C -2.101562 -5.84375 -5.234375 -7.078125 -8.046875 -9.828125 C -10.859375 -12.578125 -12.171875 -15.6875 -11.984375 -19.15625 C -11.765625 -23.0625 -9.46875 -27.253906 -5.09375 -31.734375 C -2.601562 -34.285156 -0.242188 -36.125 1.984375 -37.25 C 4.210938 -38.382812 6.289062 -38.953125 8.21875 -38.953125 C 10.144531 -38.953125 11.925781 -38.5 13.5625 -37.59375 L 5.609375 -29.46875 C 3.617188 -29.757812 1.671875 -28.929688 -0.234375 -26.984375 C -2.023438 -25.148438 -2.816406 -23.285156 -2.609375 -21.390625 C -2.441406 -19.878906 -1.78125 -18.5625 -0.625 -17.4375 C 0.519531 -16.3125 1.851562 -15.675781 3.375 -15.53125 C 5.269531 -15.382812 7.113281 -16.226562 8.90625 -18.0625 C 10.351562 -19.539062 11.3125 -20.773438 11.78125 -21.765625 C 12.257812 -22.753906 12.457031 -23.625 12.375 -24.375 L 9.46875 -21.40625 L 6.296875 -24.515625 L 16.390625 -34.828125 L 25.4375 -25.984375 L 22.34375 -22.828125 L 19.953125 -23.90625 C 19.410156 -20.507812 17.347656 -16.976562 13.765625 -13.3125 Z M 13.765625 -13.3125 "/></g></g></g><g fill="#010038" fill-opacity="1"><g transform="translate(126.066917, 100.480248)"><g><path d="M 15.0625 -7.265625 C 12.039062 -5.679688 9.429688 -4.726562 7.234375 -4.40625 C 5.035156 -4.09375 3.148438 -4.25 1.578125 -4.875 C 0.015625 -5.507812 -1.320312 -6.488281 -2.4375 -7.8125 L 7.546875 -13.03125 C 8.847656 -12.351562 10.304688 -12.4375 11.921875 -13.28125 C 13.535156 -14.125 14.429688 -15.269531 14.609375 -16.71875 C 14.617188 -16.851562 14.601562 -16.960938 14.5625 -17.046875 C 14.414062 -17.335938 13.9375 -17.359375 13.125 -17.109375 C 12.3125 -16.859375 11.140625 -16.378906 9.609375 -15.671875 C 7.703125 -14.773438 5.640625 -13.953125 3.421875 -13.203125 C -1.515625 -11.523438 -4.757812 -12.164062 -6.3125 -15.125 C -6.445312 -15.375 -6.570312 -15.648438 -6.6875 -15.953125 C -7.132812 -17.609375 -7.171875 -19.265625 -6.796875 -20.921875 C -6.429688 -22.578125 -5.488281 -24.210938 -3.96875 -25.828125 C -2.445312 -27.453125 -0.175781 -29.054688 2.84375 -30.640625 C 5.882812 -32.222656 8.5 -33.175781 10.6875 -33.5 C 12.882812 -33.820312 14.765625 -33.660156 16.328125 -33.015625 C 17.898438 -32.378906 19.242188 -31.40625 20.359375 -30.09375 L 10.359375 -24.859375 C 9.066406 -25.535156 7.613281 -25.453125 6 -24.609375 C 4.382812 -23.765625 3.484375 -22.617188 3.296875 -21.171875 C 3.285156 -21.054688 3.300781 -20.960938 3.34375 -20.890625 C 3.46875 -20.640625 3.914062 -20.640625 4.6875 -20.890625 C 5.46875 -21.148438 6.578125 -21.601562 8.015625 -22.25 C 9.460938 -22.894531 11.019531 -23.53125 12.6875 -24.15625 C 14.351562 -24.789062 15.988281 -25.234375 17.59375 -25.484375 C 19.207031 -25.742188 20.640625 -25.628906 21.890625 -25.140625 C 22.859375 -24.742188 23.617188 -24.015625 24.171875 -22.953125 C 24.335938 -22.640625 24.484375 -22.304688 24.609375 -21.953125 C 25.054688 -20.285156 25.09375 -18.628906 24.71875 -16.984375 C 24.351562 -15.335938 23.410156 -13.703125 21.890625 -12.078125 C 20.378906 -10.453125 18.101562 -8.847656 15.0625 -7.265625 Z M 15.0625 -7.265625 "/></g></g></g><g fill="#010038" fill-opacity="1"><g transform="translate(154.398974, 86.741746)"><g/></g></g><g fill="#010038" fill-opacity="1"><g transform="translate(160.617066, 83.045129)"><g><path d="M 19.109375 -1.15625 C 12.878906 -0.601562 8.179688 -1.472656 5.015625 -3.765625 C 2.210938 -5.804688 0.632812 -8.789062 0.28125 -12.71875 C -0.0703125 -16.625 0.953125 -19.828125 3.359375 -22.328125 C 6.066406 -25.171875 10.535156 -26.867188 16.765625 -27.421875 C 22.992188 -27.984375 27.695312 -27.109375 30.875 -24.796875 C 33.664062 -22.753906 35.238281 -19.78125 35.59375 -15.875 C 35.945312 -11.945312 34.925781 -8.734375 32.53125 -6.234375 C 29.8125 -3.410156 25.335938 -1.71875 19.109375 -1.15625 Z M 18.5 -7.921875 C 21.050781 -8.148438 22.863281 -9.050781 23.9375 -10.625 C 24.789062 -11.894531 25.144531 -13.332031 25 -14.9375 C 24.851562 -16.539062 24.25 -17.882812 23.1875 -18.96875 C 21.851562 -20.332031 19.910156 -20.898438 17.359375 -20.671875 C 14.804688 -20.441406 12.992188 -19.539062 11.921875 -17.96875 C 11.066406 -16.707031 10.710938 -15.273438 10.859375 -13.671875 C 11.003906 -12.066406 11.609375 -10.71875 12.671875 -9.625 C 14.003906 -8.257812 15.945312 -7.691406 18.5 -7.921875 Z M 18.5 -7.921875 "/></g></g></g><g fill="#010038" fill-opacity="1"><g transform="translate(195.703603, 79.81514)"><g><path d="M 13.09375 2.984375 L 2.75 0.625 L 8.375 -24.046875 L 36.734375 -17.578125 L 35.34375 -11.484375 L 17.328125 -15.59375 L 16.4375 -11.71875 L 31.671875 -8.25 L 30.59375 -3.515625 L 15.359375 -6.984375 Z M 13.09375 2.984375 "/></g></g></g><g fill="#010038" fill-opacity="1"><g transform="translate(226.032517, 87.696518)"><g/></g></g><g fill="#010038" fill-opacity="1"><g transform="translate(233.187643, 88.723216)"><g><path d="M 30.328125 21.859375 L 21.734375 15.65625 L 27.703125 7.359375 L 16.875 -0.4375 L 10.90625 7.859375 L 2.296875 1.65625 L 17.09375 -18.875 L 25.703125 -12.671875 L 19.71875 -4.375 L 30.546875 3.421875 L 36.53125 -4.875 L 45.125 1.328125 Z M 30.328125 21.859375 "/></g></g></g><g fill="#010038" fill-opacity="1"><g transform="translate(263.429146, 110.036764)"><g><path d="M 10.40625 16.078125 C 6.851562 10.921875 5.300781 6.398438 5.75 2.515625 C 6.144531 -0.929688 7.960938 -3.773438 11.203125 -6.015625 C 14.441406 -8.234375 17.738281 -8.914062 21.09375 -8.0625 C 24.90625 -7.09375 28.585938 -4.03125 32.140625 1.125 C 35.679688 6.269531 37.222656 10.789062 36.765625 14.6875 C 36.359375 18.132812 34.535156 20.96875 31.296875 23.1875 C 28.054688 25.425781 24.765625 26.117188 21.421875 25.265625 C 17.617188 24.285156 13.945312 21.222656 10.40625 16.078125 Z M 16 12.21875 C 17.445312 14.332031 19.117188 15.460938 21.015625 15.609375 C 22.546875 15.742188 23.96875 15.351562 25.28125 14.4375 C 26.613281 13.519531 27.488281 12.328125 27.90625 10.859375 C 28.445312 9.046875 27.992188 7.082031 26.546875 4.96875 C 25.085938 2.851562 23.40625 1.710938 21.5 1.546875 C 19.988281 1.421875 18.566406 1.816406 17.234375 2.734375 C 15.921875 3.648438 15.046875 4.835938 14.609375 6.296875 C 14.078125 8.128906 14.539062 10.101562 16 12.21875 Z M 16 12.21875 "/></g></g></g><g fill="#010038" fill-opacity="1"><g transform="translate(283.825494, 138.647704)"><g><path d="M 3.53125 12.96875 L 0.734375 2.734375 L 25.15625 -3.90625 L 29.6875 12.75 C 30.769531 16.726562 31.34375 20.019531 31.40625 22.625 C 31.476562 25.238281 31.03125 27.28125 30.0625 28.75 C 29.09375 30.21875 27.582031 31.226562 25.53125 31.78125 C 23.5 32.34375 21.6875 32.234375 20.09375 31.453125 C 18.507812 30.679688 17.085938 29.148438 15.828125 26.859375 C 14.566406 24.578125 13.394531 21.445312 12.3125 17.46875 L 10.578125 11.046875 Z M 16.609375 9.421875 L 18.21875 15.265625 C 18.65625 16.898438 19.066406 18.171875 19.453125 19.078125 C 19.847656 19.984375 20.222656 20.628906 20.578125 21.015625 C 20.941406 21.398438 21.300781 21.609375 21.65625 21.640625 C 22.007812 21.679688 22.367188 21.648438 22.734375 21.546875 C 23.117188 21.441406 23.457031 21.28125 23.75 21.0625 C 24.050781 20.851562 24.257812 20.492188 24.375 19.984375 C 24.488281 19.472656 24.476562 18.726562 24.34375 17.75 C 24.21875 16.769531 23.9375 15.460938 23.5 13.828125 L 21.90625 7.96875 Z M 16.609375 9.421875 "/></g></g></g><g fill="#010038" fill-opacity="1"><g transform="translate(293.353684, 173.048527)"><g><path d="M -1.875 33.25 L -0.15625 2.828125 L 25.109375 4.25 L 23.46875 33.28125 L 17.21875 32.9375 L 18.265625 14.5 L 14.296875 14.265625 L 13.40625 29.84375 L 8.5625 29.578125 L 9.453125 14 L 5.5 13.78125 L 4.375 33.609375 Z M -1.875 33.25 "/></g></g></g></svg>