<svg xmlns="http://www.w3.org/2000/svg" xmlns:xlink="http://www.w3.org/1999/xlink" width="500" zoomAndPan="magnify" viewBox="0 0 375 374.999991" height="500" preserveAspectRatio="xMidYMid meet" version="1.0"><defs><g/><clipPath id="c1c289dea1"><path d="M 112.5 149.289062 L 262.5 149.289062 L 262.5 272.289062 L 112.5 272.289062 Z M 112.5 149.289062 " clip-rule="nonzero"/></clipPath><clipPath id="4f71f86629"><path d="M 92.367188 115.792969 L 282.867188 115.792969 L 282.867188 306.292969 L 92.367188 306.292969 Z M 92.367188 115.792969 " clip-rule="nonzero"/></clipPath></defs><g clip-path="url(#c1c289dea1)"><path fill="#000000" d="M 174.875 149.289062 L 181.257812 149.289062 C 182.40625 149.421875 183.554688 149.542969 184.703125 149.660156 C 192.953125 150.5 200.882812 153.503906 207.316406 158.871094 C 207.910156 159.367188 208.570312 160.109375 209.246094 160.6875 C 209.324219 160.75 209.414062 160.785156 209.515625 160.789062 C 210.644531 160.824219 211.867188 160.746094 212.914062 161.042969 C 216.628906 162.097656 219.234375 165.289062 219.699219 169.085938 C 219.714844 169.203125 219.714844 169.972656 219.699219 171.40625 C 219.671875 174.148438 220.941406 176.230469 223.503906 177.660156 C 226.347656 179.242188 229.09375 180.445312 231.75 181.269531 C 237.335938 183.007812 242.96875 184.574219 248.652344 185.964844 C 251.183594 186.582031 252.960938 186.882812 253.984375 186.863281 C 257.171875 186.800781 260.164062 187.144531 261.445312 190.375 C 261.804688 191.273438 262.117188 193.035156 262.382812 195.660156 L 262.382812 198.53125 C 262.078125 201.839844 260.8125 203.773438 259.046875 206.210938 C 258.988281 206.292969 258.957031 206.382812 258.953125 206.480469 C 258.820312 210.804688 258.148438 214.40625 255.148438 217.589844 C 253.628906 219.199219 251.324219 220.429688 249.269531 221.433594 C 249.03125 221.550781 248.890625 221.738281 248.847656 221.996094 C 247.597656 229.273438 241.792969 234.660156 234.464844 235.492188 C 233.007812 235.65625 231.6875 235.914062 230.125 235.625 C 229.695312 235.542969 229.140625 235.496094 228.457031 235.480469 C 227.660156 235.457031 226.925781 235.214844 226.207031 235.183594 C 220.625 234.941406 215.355469 234.910156 210.195312 235.839844 C 203.320312 237.082031 194.957031 241.601562 192.4375 248.4375 C 192.1875 249.109375 192.042969 249.910156 192.003906 250.832031 C 191.886719 253.660156 191.863281 255.769531 190.96875 258.238281 C 189.171875 263.175781 186.835938 267.847656 183.960938 272.25 C 183.941406 272.277344 183.914062 272.285156 183.882812 272.273438 C 183.851562 272.257812 183.839844 272.230469 183.851562 272.199219 C 186.085938 265.390625 188.042969 258.460938 188.453125 251.273438 C 188.535156 249.828125 188.6875 248.722656 188.917969 247.960938 C 190.351562 243.183594 194.53125 239.015625 198.695312 236.457031 C 202.511719 234.105469 206.824219 232.621094 211.632812 232.003906 C 217.097656 231.304688 222.191406 231.203125 226.921875 231.695312 C 229.644531 231.980469 231.695312 232.089844 233.074219 232.027344 C 238.824219 231.78125 244.800781 227.714844 245.285156 221.632812 C 245.320312 221.226562 245.160156 221.125 244.800781 221.324219 C 238.164062 225.046875 229.582031 228.847656 221.890625 227.820312 C 219.054688 227.441406 216.355469 226.621094 213.796875 225.359375 C 210.859375 223.914062 208.707031 222.863281 207.339844 222.203125 C 202.09375 219.683594 195.652344 219.523438 190.632812 222.675781 C 190.582031 222.714844 190.535156 222.707031 190.496094 222.65625 C 190.457031 222.605469 190.460938 222.558594 190.515625 222.519531 C 195.742188 217.675781 203.609375 217.269531 209.820312 220.332031 C 213.460938 222.128906 217.113281 224.070312 220.625 224.886719 C 228.601562 226.738281 237.492188 223.660156 244.515625 219.914062 C 246.628906 218.785156 248.75 217.675781 250.886719 216.578125 C 253.972656 214.996094 255.507812 210.683594 255.402344 207.472656 C 255.378906 206.75 255.011719 206.105469 254.296875 205.546875 C 252.277344 203.957031 250.136719 202.542969 247.875 201.300781 C 246.394531 200.492188 245.304688 199.371094 244.722656 197.765625 C 243.269531 193.769531 246.175781 192.136719 248.953125 190.167969 C 249.335938 189.894531 249.296875 189.707031 248.839844 189.59375 C 242.25 188.007812 235.707031 186.175781 229.21875 184.09375 C 227.050781 183.398438 224.855469 182.410156 222.628906 181.132812 C 218.789062 178.921875 216.339844 176.621094 216.328125 172.191406 C 216.320312 170.492188 216.316406 169.640625 216.316406 169.636719 C 215.8125 166.039062 213.039062 163.847656 209.378906 164.363281 C 209.261719 164.382812 209.230469 164.441406 209.289062 164.546875 C 209.566406 165.035156 209.652344 165.566406 209.542969 166.144531 C 209.535156 166.183594 209.542969 166.222656 209.5625 166.261719 L 209.671875 166.457031 C 209.691406 166.519531 209.675781 166.566406 209.617188 166.597656 C 209.5625 166.632812 209.511719 166.621094 209.472656 166.570312 C 205.449219 159.765625 196.847656 155.535156 189.382812 153.9375 C 185.082031 153.011719 181.652344 152.796875 177.332031 152.824219 C 175.371094 152.835938 173.765625 152.929688 172.511719 153.105469 C 169.519531 153.519531 166.609375 154.296875 163.785156 155.441406 C 163.160156 155.691406 162.125 155.839844 160.675781 155.878906 C 159.246094 155.917969 157.015625 155.585938 155.425781 155.832031 C 152.867188 156.234375 150.75 157.394531 149.078125 159.316406 C 148.589844 159.878906 148.0625 160.722656 147.488281 161.851562 C 146.324219 164.15625 145.214844 166.300781 143.347656 168.351562 C 142.683594 169.082031 141.546875 170.160156 139.933594 171.59375 C 135.6875 175.371094 131.511719 179.226562 127.40625 183.160156 C 125.210938 185.261719 118.902344 191.671875 122.964844 194.628906 C 125.121094 196.199219 126.851562 198.121094 128.148438 200.386719 C 129.121094 202.074219 130.394531 204.632812 131.652344 206.40625 C 136.214844 212.867188 142.855469 218.53125 149.347656 222.984375 C 151.121094 224.199219 153.371094 225.480469 155.101562 226.171875 C 160.75 228.429688 166.175781 225.148438 169.046875 220.34375 C 171.398438 216.398438 172.730469 211.910156 173.039062 206.875 C 173.363281 201.621094 172.742188 196.484375 171.175781 191.460938 C 170.226562 188.414062 168.957031 184.765625 167.363281 180.519531 C 166.386719 177.914062 165.824219 175.132812 165.683594 172.175781 C 165.632812 171.136719 165.847656 170.054688 165.9375 168.949219 C 166.289062 164.855469 168.722656 160.863281 171.761719 158.15625 C 171.789062 158.128906 171.820312 158.128906 171.851562 158.152344 C 171.878906 158.175781 171.886719 158.207031 171.871094 158.242188 C 169.390625 162.925781 168.042969 168.730469 168.851562 174.015625 C 169.367188 177.367188 171.164062 181.675781 172.371094 185.394531 C 175.410156 194.75 175.949219 204.253906 173.996094 213.910156 C 173.15625 218.066406 171.3125 222.578125 168.359375 225.519531 C 165.179688 228.6875 161.0625 229.925781 156.003906 229.238281 C 153.640625 228.921875 152.074219 228.433594 149.929688 227.1875 C 144.375 223.949219 139.324219 219.9375 134.78125 215.148438 C 134.703125 215.070312 134.609375 215.042969 134.503906 215.070312 C 134.394531 215.097656 134.328125 215.164062 134.300781 215.269531 C 132.191406 223.015625 129.628906 230.664062 126.605469 238.222656 C 122.433594 248.671875 117.902344 259.144531 112.714844 269.132812 C 112.683594 269.195312 112.644531 269.199219 112.605469 269.140625 C 112.582031 269.105469 112.582031 269.058594 112.605469 269.007812 C 119.148438 252.664062 124.910156 235.898438 129.089844 218.789062 C 129.695312 216.316406 130.207031 213.882812 130.625 211.484375 C 130.683594 211.15625 130.605469 210.859375 130.394531 210.601562 C 128.410156 208.175781 127 205.507812 125.421875 202.777344 C 124.125 200.539062 122.808594 198.992188 120.960938 197.410156 C 119.96875 196.566406 119.332031 195.925781 119.0625 195.5 C 117.914062 193.703125 118.121094 191.820312 118.59375 189.835938 C 119.269531 187.011719 121.835938 183.878906 123.898438 181.878906 C 128.476562 177.4375 133.132812 173.078125 137.867188 168.796875 C 140.066406 166.8125 142.214844 164.691406 143.300781 162.460938 C 144.226562 160.550781 145.128906 158.488281 146.503906 156.976562 C 149.015625 154.21875 152.148438 152.613281 155.90625 152.160156 C 157.34375 151.988281 159.1875 152.289062 160.875 152.246094 C 163.113281 152.195312 165.488281 151 167.644531 150.453125 C 169.355469 150.019531 170.742188 149.75 171.804688 149.648438 C 173.390625 149.496094 174.414062 149.375 174.875 149.289062 Z M 258.355469 200.691406 C 258.441406 200.398438 258.535156 200.109375 258.628906 199.828125 C 258.738281 199.515625 258.808594 199.222656 258.832031 198.953125 C 259.050781 196.816406 258.902344 194.597656 258.390625 192.296875 C 258.226562 191.554688 257.972656 190.925781 257.175781 190.742188 C 255.605469 190.378906 254.074219 190.449219 252.460938 190.328125 C 251.464844 190.253906 250.953125 190.488281 250.160156 190.988281 C 248.78125 191.855469 245.875 193.570312 245.75 195.1875 C 245.5625 197.519531 246.539062 199.109375 248.679688 199.957031 C 249.738281 200.378906 250.726562 200.328125 251.640625 199.804688 C 252.867188 199.101562 252.566406 197.273438 253.074219 196.082031 C 253.898438 194.15625 255.902344 194.316406 256.671875 196.148438 C 257.539062 198.195312 257.144531 200.296875 256.902344 202.515625 C 256.894531 202.601562 256.925781 202.664062 257.003906 202.699219 C 257.082031 202.738281 257.152344 202.726562 257.210938 202.664062 C 257.75 202.121094 258.132812 201.464844 258.355469 200.691406 Z M 254.882812 202.589844 C 255.035156 202.59375 255.1875 202.519531 255.335938 202.371094 C 255.484375 202.21875 255.617188 202.003906 255.734375 201.71875 C 255.855469 201.4375 255.949219 201.109375 256.019531 200.734375 C 256.089844 200.363281 256.132812 199.976562 256.144531 199.570312 C 256.15625 199.164062 256.136719 198.773438 256.089844 198.398438 C 256.039062 198.023438 255.964844 197.6875 255.863281 197.398438 C 255.761719 197.109375 255.644531 196.886719 255.503906 196.726562 C 255.363281 196.566406 255.21875 196.484375 255.0625 196.480469 C 254.90625 196.476562 254.753906 196.550781 254.605469 196.699219 C 254.460938 196.851562 254.324219 197.066406 254.207031 197.351562 C 254.089844 197.632812 253.996094 197.960938 253.925781 198.335938 C 253.851562 198.707031 253.8125 199.09375 253.800781 199.5 C 253.789062 199.90625 253.804688 200.296875 253.855469 200.671875 C 253.902344 201.046875 253.976562 201.378906 254.078125 201.671875 C 254.179688 201.960938 254.300781 202.183594 254.441406 202.34375 C 254.578125 202.503906 254.726562 202.585938 254.882812 202.589844 Z M 254.882812 202.589844 " fill-opacity="1" fill-rule="nonzero"/></g><path fill="#000000" d="M 194.230469 181.257812 C 194.128906 181.367188 194.136719 181.46875 194.246094 181.566406 C 195.777344 182.882812 197.484375 183.890625 199.371094 184.59375 C 201.9375 185.554688 204.71875 185.449219 207.710938 184.28125 C 207.722656 184.273438 207.734375 184.277344 207.742188 184.285156 C 207.75 184.289062 207.753906 184.300781 207.753906 184.3125 C 207.714844 184.597656 207.574219 184.839844 207.335938 185.039062 C 204.765625 187.207031 201.28125 187.367188 198.210938 186.398438 C 194.996094 185.382812 192.667969 182.984375 189.160156 182.671875 C 189.121094 182.667969 189.097656 182.648438 189.089844 182.609375 C 189.082031 182.574219 189.09375 182.542969 189.125 182.523438 C 191.253906 181.15625 193.152344 179.511719 194.820312 177.585938 C 196.152344 176.042969 198.503906 174.175781 200.398438 173.695312 C 205.179688 172.484375 206.207031 178.054688 209.175781 180.140625 C 209.90625 180.65625 210.734375 181.023438 211.667969 181.246094 C 211.746094 181.261719 211.785156 181.3125 211.78125 181.390625 C 211.777344 181.472656 211.734375 181.515625 211.652344 181.523438 C 210.910156 181.621094 210.132812 181.878906 209.460938 181.886719 C 206.160156 181.929688 205.878906 178.792969 203.769531 177.121094 C 200.570312 174.589844 196.21875 179.179688 194.230469 181.257812 Z M 194.230469 181.257812 " fill-opacity="1" fill-rule="nonzero"/><path fill="#000000" d="M 149.34375 185.734375 C 149.464844 185.28125 149.585938 184.824219 149.710938 184.371094 C 149.722656 184.320312 149.757812 184.296875 149.808594 184.300781 C 149.863281 184.308594 149.894531 184.339844 149.894531 184.390625 C 150.03125 186.332031 149.648438 188.296875 149.640625 190.105469 C 149.632812 192.484375 149.320312 194.976562 149.324219 197.171875 C 149.324219 199.011719 149.324219 200.835938 149.324219 202.648438 C 149.320312 202.6875 149.300781 202.710938 149.265625 202.714844 C 149.226562 202.722656 149.203125 202.707031 149.1875 202.671875 C 147.402344 197.382812 147.328125 192.085938 148.964844 186.777344 C 148.96875 186.757812 148.996094 186.636719 149.042969 186.410156 C 149.09375 186.144531 149.277344 185.992188 149.34375 185.734375 Z M 149.34375 185.734375 " fill-opacity="1" fill-rule="nonzero"/><path fill="#000000" d="M 146.457031 216.191406 C 146.527344 216.257812 146.570312 216.320312 146.59375 216.367188 C 146.617188 216.425781 146.601562 216.472656 146.554688 216.511719 C 146.507812 216.550781 146.457031 216.550781 146.410156 216.515625 C 142.238281 213.625 138.8125 210.089844 136.132812 205.910156 C 135.320312 204.644531 134.308594 202.789062 133.097656 200.347656 C 130.980469 196.089844 127.898438 193.222656 124.03125 190.558594 C 123.984375 190.527344 123.949219 190.492188 123.925781 190.449219 C 123.886719 190.386719 123.863281 190.339844 123.851562 190.304688 C 123.832031 190.257812 123.839844 190.214844 123.871094 190.175781 C 123.90625 190.136719 123.949219 190.121094 124 190.132812 C 135.457031 192.171875 140.246094 201.734375 144.136719 211.441406 C 144.800781 213.09375 145.535156 214.519531 146.324219 216.023438 C 146.355469 216.082031 146.398438 216.136719 146.457031 216.191406 Z M 146.457031 216.191406 " fill-opacity="1" fill-rule="nonzero"/><path fill="#000000" d="M 167.609375 268.0625 C 166.8125 267.324219 165.984375 266.425781 165.121094 265.359375 C 158.28125 256.929688 154.679688 246.6875 153.710938 235.949219 C 153.710938 235.914062 153.726562 235.890625 153.761719 235.878906 C 153.796875 235.867188 153.820312 235.878906 153.839844 235.910156 C 159.824219 246.050781 165.09375 256.347656 167.730469 267.992188 C 167.765625 268.144531 167.722656 268.167969 167.609375 268.0625 Z M 167.609375 268.0625 " fill-opacity="1" fill-rule="nonzero"/><g clip-path="url(#4f71f86629)"><path fill="#ec9e16" d="M 187.5 306.058594 C 134.941406 306.058594 92.367188 263.191406 92.367188 210.925781 C 92.367188 158.660156 134.941406 115.792969 187.5 115.792969 C 240.058594 115.792969 282.632812 158.367188 282.632812 210.925781 C 282.632812 263.484375 239.765625 306.058594 187.5 306.058594 Z M 187.5 121.664062 C 138.171875 121.664062 98.238281 161.597656 98.238281 210.925781 C 98.238281 260.253906 138.171875 300.1875 187.5 300.1875 C 236.828125 300.1875 276.761719 260.253906 276.761719 210.925781 C 276.761719 161.597656 236.535156 121.664062 187.5 121.664062 Z M 187.5 121.664062 " fill-opacity="1" fill-rule="nonzero"/></g><g fill="#010038" fill-opacity="1"><g transform="translate(83.840277, 236.473581)"><g><path d="M 0.484375 -42.640625 L 0.390625 -33.78125 L -16.125 -27.71875 L 0.25 -21.296875 L 0.140625 -12.4375 L -25.296875 -0.5625 L -25.171875 -11.328125 L -9.015625 -17.484375 L -25.015625 -24.484375 L -24.9375 -31.1875 L -8.78125 -37.796875 L -24.796875 -44.34375 L -24.671875 -55.109375 Z M 0.484375 -42.640625 "/></g></g></g><g fill="#010038" fill-opacity="1"><g transform="translate(84.904218, 185.36908)"><g><path d="M 18.09375 -38.46875 L 13.515625 -28.734375 L 8.75 -28.34375 L 1.953125 -13.890625 L 4.703125 -9.984375 L 0.109375 -0.234375 L -15.890625 -25.65625 L -11.6875 -34.578125 Z M 1.546875 -27.765625 L -7.25 -27.0625 L -2.1875 -19.8125 Z M 1.546875 -27.765625 "/></g></g></g><g fill="#010038" fill-opacity="1"><g transform="translate(101.49978, 149.596957)"><g><path d="M 14.046875 -13 C 9.578125 -8.625 5.394531 -6.320312 1.5 -6.09375 C -1.976562 -5.894531 -5.09375 -7.195312 -7.84375 -10 C -10.59375 -12.8125 -11.828125 -15.945312 -11.546875 -19.40625 C -11.253906 -23.3125 -8.875 -27.453125 -4.40625 -31.828125 C -1.863281 -34.328125 0.53125 -36.117188 2.78125 -37.203125 C 5.03125 -38.285156 7.113281 -38.800781 9.03125 -38.75 C 10.957031 -38.707031 12.734375 -38.222656 14.359375 -37.296875 L 6.25 -29.34375 C 4.25 -29.675781 2.28125 -28.890625 0.34375 -26.984375 C -1.488281 -25.191406 -2.320312 -23.34375 -2.15625 -21.4375 C -2.007812 -19.925781 -1.375 -18.59375 -0.25 -17.4375 C 0.875 -16.289062 2.191406 -15.628906 3.703125 -15.453125 C 5.597656 -15.265625 7.460938 -16.066406 9.296875 -17.859375 C 10.773438 -19.316406 11.757812 -20.53125 12.25 -21.5 C 12.738281 -22.476562 12.957031 -23.347656 12.90625 -24.109375 L 9.9375 -21.203125 L 6.828125 -24.375 L 17.125 -34.46875 L 25.984375 -25.4375 L 22.828125 -22.34375 L 20.46875 -23.46875 C 19.84375 -20.082031 17.703125 -16.59375 14.046875 -13 Z M 14.046875 -13 "/></g></g></g><g fill="#010038" fill-opacity="1"><g transform="translate(126.729744, 124.741273)"><g><path d="M 15.234375 -6.9375 C 12.171875 -5.425781 9.535156 -4.53125 7.328125 -4.25 C 5.128906 -3.976562 3.25 -4.175781 1.6875 -4.84375 C 0.132812 -5.507812 -1.179688 -6.515625 -2.265625 -7.859375 L 7.828125 -12.859375 C 9.109375 -12.160156 10.566406 -12.210938 12.203125 -13.015625 C 13.828125 -13.828125 14.75 -14.957031 14.96875 -16.40625 C 14.976562 -16.539062 14.960938 -16.648438 14.921875 -16.734375 C 14.773438 -17.023438 14.289062 -17.050781 13.46875 -16.8125 C 12.65625 -16.582031 11.484375 -16.132812 9.953125 -15.46875 C 8.023438 -14.613281 5.941406 -13.832031 3.703125 -13.125 C -1.273438 -11.550781 -4.503906 -12.257812 -5.984375 -15.25 C -6.109375 -15.5 -6.226562 -15.78125 -6.34375 -16.09375 C -6.757812 -17.757812 -6.757812 -19.410156 -6.34375 -21.046875 C -5.9375 -22.691406 -4.957031 -24.3125 -3.40625 -25.90625 C -1.863281 -27.5 0.4375 -29.050781 3.5 -30.5625 C 6.5625 -32.09375 9.191406 -32.988281 11.390625 -33.25 C 13.597656 -33.519531 15.476562 -33.320312 17.03125 -32.65625 C 18.59375 -31.988281 19.914062 -30.988281 21 -29.65625 L 10.890625 -24.640625 C 9.609375 -25.335938 8.15625 -25.28125 6.53125 -24.46875 C 4.894531 -23.664062 3.96875 -22.539062 3.75 -21.09375 C 3.738281 -20.976562 3.75 -20.882812 3.78125 -20.8125 C 3.90625 -20.5625 4.359375 -20.550781 5.140625 -20.78125 C 5.929688 -21.019531 7.050781 -21.445312 8.5 -22.0625 C 9.945312 -22.6875 11.507812 -23.296875 13.1875 -23.890625 C 14.875 -24.492188 16.523438 -24.90625 18.140625 -25.125 C 19.765625 -25.34375 21.191406 -25.1875 22.421875 -24.65625 C 23.378906 -24.25 24.125 -23.503906 24.65625 -22.421875 C 24.8125 -22.117188 24.953125 -21.785156 25.078125 -21.421875 C 25.492188 -19.742188 25.492188 -18.082031 25.078125 -16.4375 C 24.671875 -14.800781 23.691406 -13.191406 22.140625 -11.609375 C 20.597656 -10.023438 18.296875 -8.46875 15.234375 -6.9375 Z M 15.234375 -6.9375 "/></g></g></g><g fill="#010038" fill-opacity="1"><g transform="translate(155.348581, 111.610628)"><g/></g></g><g fill="#010038" fill-opacity="1"><g transform="translate(161.644171, 108.047567)"><g><path d="M 19.125 -0.75 C 12.882812 -0.320312 8.207031 -1.296875 5.09375 -3.671875 C 2.332031 -5.765625 0.816406 -8.773438 0.546875 -12.703125 C 0.273438 -16.617188 1.367188 -19.804688 3.828125 -22.265625 C 6.597656 -25.035156 11.101562 -26.632812 17.34375 -27.0625 C 23.582031 -27.488281 28.265625 -26.515625 31.390625 -24.140625 C 34.140625 -22.035156 35.648438 -19.023438 35.921875 -15.109375 C 36.191406 -11.179688 35.101562 -7.992188 32.65625 -5.546875 C 29.875 -2.773438 25.363281 -1.175781 19.125 -0.75 Z M 18.671875 -7.53125 C 21.234375 -7.707031 23.054688 -8.570312 24.140625 -10.125 C 25.035156 -11.363281 25.425781 -12.785156 25.3125 -14.390625 C 25.207031 -16.003906 24.628906 -17.367188 23.578125 -18.484375 C 22.285156 -19.867188 20.359375 -20.472656 17.796875 -20.296875 C 15.242188 -20.117188 13.410156 -19.257812 12.296875 -17.71875 C 11.421875 -16.46875 11.035156 -15.035156 11.140625 -13.421875 C 11.253906 -11.816406 11.828125 -10.460938 12.859375 -9.359375 C 14.179688 -7.960938 16.117188 -7.351562 18.671875 -7.53125 Z M 18.671875 -7.53125 "/></g></g></g><g fill="#010038" fill-opacity="1"><g transform="translate(196.79166, 105.567213)"><g><path d="M 13.03125 3.265625 L 2.75 0.6875 L 8.90625 -23.859375 L 37.109375 -16.796875 L 35.578125 -10.71875 L 17.65625 -15.203125 L 16.6875 -11.359375 L 31.828125 -7.5625 L 30.65625 -2.84375 L 15.515625 -6.640625 Z M 13.03125 3.265625 "/></g></g></g><g fill="#010038" fill-opacity="1"><g transform="translate(226.945423, 114.094141)"><g/></g></g><g fill="#010038" fill-opacity="1"><g transform="translate(234.076996, 115.273323)"><g><path d="M 29.859375 22.5 L 21.390625 16.109375 L 27.546875 7.953125 L 16.890625 -0.0625 L 10.734375 8.09375 L 2.265625 1.703125 L 17.5 -18.515625 L 25.96875 -12.125 L 19.8125 -3.953125 L 30.46875 4.0625 L 36.625 -4.109375 L 45.09375 2.28125 Z M 29.859375 22.5 "/></g></g></g><g fill="#010038" fill-opacity="1"><g transform="translate(263.856696, 137.227503)"><g><path d="M 10.0625 16.296875 C 6.625 11.054688 5.164062 6.503906 5.6875 2.640625 C 6.15625 -0.804688 8.035156 -3.609375 11.328125 -5.765625 C 14.609375 -7.921875 17.921875 -8.535156 21.265625 -7.609375 C 25.046875 -6.566406 28.65625 -3.425781 32.09375 1.8125 C 35.519531 7.03125 36.96875 11.582031 36.4375 15.46875 C 35.96875 18.90625 34.09375 21.703125 30.8125 23.859375 C 27.519531 26.015625 24.203125 26.632812 20.859375 25.71875 C 17.085938 24.65625 13.488281 21.515625 10.0625 16.296875 Z M 15.734375 12.5625 C 17.140625 14.695312 18.785156 15.863281 20.671875 16.0625 C 22.191406 16.21875 23.625 15.859375 24.96875 14.984375 C 26.320312 14.097656 27.222656 12.921875 27.671875 11.453125 C 28.253906 9.640625 27.84375 7.664062 26.4375 5.53125 C 25.03125 3.382812 23.367188 2.207031 21.453125 2 C 19.953125 1.851562 18.523438 2.222656 17.171875 3.109375 C 15.828125 3.984375 14.921875 5.148438 14.453125 6.609375 C 13.898438 8.429688 14.328125 10.414062 15.734375 12.5625 Z M 15.734375 12.5625 "/></g></g></g><g fill="#010038" fill-opacity="1"><g transform="translate(283.637747, 166.267274)"><g><path d="M 3.25 13.03125 L 0.6875 2.75 L 25.25 -3.375 L 29.421875 13.375 C 30.421875 17.375 30.921875 20.679688 30.921875 23.296875 C 30.929688 25.910156 30.4375 27.941406 29.4375 29.390625 C 28.4375 30.835938 26.90625 31.816406 24.84375 32.328125 C 22.789062 32.835938 20.984375 32.6875 19.421875 31.875 C 17.859375 31.070312 16.46875 29.515625 15.25 27.203125 C 14.039062 24.890625 12.9375 21.734375 11.9375 17.734375 L 10.328125 11.265625 Z M 16.390625 9.75 L 17.875 15.65625 C 18.28125 17.289062 18.664062 18.566406 19.03125 19.484375 C 19.394531 20.410156 19.753906 21.066406 20.109375 21.453125 C 20.472656 21.835938 20.832031 22.050781 21.1875 22.09375 C 21.539062 22.144531 21.90625 22.125 22.28125 22.03125 C 22.664062 21.9375 23.003906 21.785156 23.296875 21.578125 C 23.597656 21.367188 23.8125 21.007812 23.9375 20.5 C 24.0625 20 24.070312 19.253906 23.96875 18.265625 C 23.863281 17.273438 23.609375 15.960938 23.203125 14.328125 L 21.734375 8.421875 Z M 16.390625 9.75 "/></g></g></g><g fill="#010038" fill-opacity="1"><g transform="translate(292.429468, 200.863624)"><g><path d="M -2.578125 33.203125 L -0.21875 2.8125 L 25.015625 4.78125 L 22.765625 33.78125 L 16.515625 33.28125 L 17.9375 14.859375 L 13.984375 14.5625 L 12.78125 30.125 L 7.9375 29.75 L 9.140625 14.1875 L 5.203125 13.875 L 3.671875 33.6875 Z M -2.578125 33.203125 "/></g></g></g></svg>