<svg xmlns="http://www.w3.org/2000/svg" xmlns:xlink="http://www.w3.org/1999/xlink" width="300" zoomAndPan="magnify" viewBox="0 0 224.87999 225" height="300" preserveAspectRatio="xMidYMid meet" version="1.0"><defs><clipPath id="18aa66771d"><path d="M 0 92.007812 L 115.4375 92.007812 L 115.4375 224.6875 L 0 224.6875 Z M 0 92.007812 " clip-rule="nonzero"/></clipPath><clipPath id="87d5bf7a83"><path d="M 113 111 L 157 111 L 157 143 L 113 143 Z M 113 111 " clip-rule="nonzero"/></clipPath><clipPath id="bccfcca627"><path d="M 205.113281 163.773438 L 141.507812 227.378906 L 83.734375 169.605469 L 147.339844 106 Z M 205.113281 163.773438 " clip-rule="nonzero"/></clipPath><clipPath id="beb9bf191e"><path d="M 205.113281 163.773438 L 141.507812 227.378906 L 83.734375 169.605469 L 147.339844 106 Z M 205.113281 163.773438 " clip-rule="nonzero"/></clipPath><clipPath id="4445b0d834"><path d="M 120 163 L 172 163 L 172 172 L 120 172 Z M 120 163 " clip-rule="nonzero"/></clipPath><clipPath id="5a75b715f6"><path d="M 205.113281 163.773438 L 141.507812 227.378906 L 83.734375 169.605469 L 147.339844 106 Z M 205.113281 163.773438 " clip-rule="nonzero"/></clipPath><clipPath id="1dcf46af80"><path d="M 205.113281 163.773438 L 141.507812 227.378906 L 83.734375 169.605469 L 147.339844 106 Z M 205.113281 163.773438 " clip-rule="nonzero"/></clipPath><clipPath id="7b46a2b32c"><path d="M 105 189 L 153 189 L 153 219 L 105 219 Z M 105 189 " clip-rule="nonzero"/></clipPath><clipPath id="599916cccb"><path d="M 205.113281 163.773438 L 141.507812 227.378906 L 83.734375 169.605469 L 147.339844 106 Z M 205.113281 163.773438 " clip-rule="nonzero"/></clipPath><clipPath id="3af6ddc494"><path d="M 205.113281 163.773438 L 141.507812 227.378906 L 83.734375 169.605469 L 147.339844 106 Z M 205.113281 163.773438 " clip-rule="nonzero"/></clipPath><clipPath id="22567cd943"><path d="M 166 164 L 168 164 L 168 166 L 166 166 Z M 166 164 " clip-rule="nonzero"/></clipPath><clipPath id="ab5ca5d611"><path d="M 205.113281 163.773438 L 141.507812 227.378906 L 83.734375 169.605469 L 147.339844 106 Z M 205.113281 163.773438 " clip-rule="nonzero"/></clipPath><clipPath id="30f3756626"><path d="M 205.113281 163.773438 L 141.507812 227.378906 L 83.734375 169.605469 L 147.339844 106 Z M 205.113281 163.773438 " clip-rule="nonzero"/></clipPath><clipPath id="10f1fa5909"><path d="M 120 193 L 122 193 L 122 195 L 120 195 Z M 120 193 " clip-rule="nonzero"/></clipPath><clipPath id="1a9ddab2f9"><path d="M 205.113281 163.773438 L 141.507812 227.378906 L 83.734375 169.605469 L 147.339844 106 Z M 205.113281 163.773438 " clip-rule="nonzero"/></clipPath><clipPath id="e3d8298c1b"><path d="M 205.113281 163.773438 L 141.507812 227.378906 L 83.734375 169.605469 L 147.339844 106 Z M 205.113281 163.773438 " clip-rule="nonzero"/></clipPath><clipPath id="87e8be19b9"><path d="M 118 192 L 120 192 L 120 194 L 118 194 Z M 118 192 " clip-rule="nonzero"/></clipPath><clipPath id="f5a7a855af"><path d="M 205.113281 163.773438 L 141.507812 227.378906 L 83.734375 169.605469 L 147.339844 106 Z M 205.113281 163.773438 " clip-rule="nonzero"/></clipPath><clipPath id="b1801a9fc9"><path d="M 205.113281 163.773438 L 141.507812 227.378906 L 83.734375 169.605469 L 147.339844 106 Z M 205.113281 163.773438 " clip-rule="nonzero"/></clipPath><clipPath id="ce2751dc49"><path d="M 61.085938 119 L 106 119 L 106 158.296875 L 61.085938 158.296875 Z M 61.085938 119 " clip-rule="nonzero"/></clipPath><clipPath id="62f8418215"><path d="M 7.402344 138.519531 L 37.386719 138.519531 L 37.386719 176.75 L 7.402344 176.75 Z M 7.402344 138.519531 " clip-rule="nonzero"/></clipPath></defs><g clip-path="url(#18aa66771d)"><path fill="#ffffff" d="M 58.105469 209.640625 C 58.085938 209.476562 58.175781 209.367188 58.273438 209.25 C 58.574219 208.894531 58.886719 208.550781 59.148438 208.171875 C 59.355469 207.875 59.523438 207.90625 59.804688 208.070312 C 63.144531 210.019531 66.488281 211.972656 69.839844 213.898438 C 71.058594 214.597656 72.320312 215.210938 73.664062 215.644531 C 75.59375 216.269531 77.234375 215.808594 78.691406 214.4375 C 80.132812 213.085938 81.152344 211.464844 82 209.691406 C 86.273438 200.78125 90.28125 191.75 94.269531 182.710938 C 96.125 178.503906 97.925781 174.273438 99.621094 170.003906 C 102.507812 162.746094 105.210938 155.429688 107.207031 147.867188 C 107.925781 145.148438 108.328125 142.371094 108.714844 139.589844 C 109.070312 137.015625 109.308594 134.425781 109.398438 131.828125 C 109.488281 129.332031 109.472656 126.835938 109.277344 124.34375 C 109.03125 121.191406 108.539062 118.089844 107.652344 115.050781 C 106.742188 111.917969 105.414062 108.992188 103.558594 106.285156 C 101.886719 103.859375 99.546875 102.601562 96.785156 101.972656 C 93.535156 101.230469 90.339844 101.589844 87.207031 102.621094 C 82.949219 104.019531 79.34375 106.484375 76.113281 109.527344 C 72.039062 113.363281 68.835938 117.878906 66.023438 122.683594 C 62.417969 128.839844 59.382812 135.277344 56.613281 141.84375 C 55.34375 144.855469 54.085938 147.871094 53.265625 151.046875 C 53.199219 151.304688 53.109375 151.5625 52.996094 151.804688 C 52.628906 152.570312 51.804688 152.667969 51.242188 152.035156 C 50.820312 151.5625 50.699219 150.980469 50.605469 150.390625 C 50.554688 150.082031 50.441406 149.824219 50.273438 149.570312 C 47.148438 144.921875 43.242188 141.050781 38.648438 137.863281 C 35.484375 135.667969 32.066406 133.996094 28.332031 132.992188 C 25.804688 132.3125 23.234375 131.972656 20.621094 132.121094 C 17.160156 132.320312 13.949219 133.304688 11.148438 135.398438 C 9.722656 136.460938 8.773438 137.953125 7.925781 139.488281 C 6.5 142.070312 5.679688 144.851562 5.363281 147.777344 C 4.480469 155.917969 6.410156 163.429688 10.496094 170.441406 C 13.039062 174.8125 16.371094 178.53125 20.109375 181.90625 C 20.425781 182.191406 20.515625 182.378906 20.25 182.769531 C 19.675781 183.625 19.15625 184.519531 18.628906 185.402344 C 18.488281 185.636719 18.398438 185.730469 18.136719 185.511719 C 12.769531 181.023438 8.09375 175.949219 4.792969 169.71875 C 2.699219 165.773438 1.296875 161.585938 0.597656 157.164062 C 0.199219 154.632812 0 152.089844 0.0820312 149.53125 C 0.242188 144.683594 1.128906 140 3.394531 135.664062 C 6.128906 130.425781 10.316406 126.828125 15.84375 124.769531 C 19.488281 123.414062 23.261719 122.90625 27.117188 123.15625 C 36.242188 123.757812 43.226562 127.953125 47.988281 135.785156 C 49.769531 138.710938 50.914062 141.890625 51.753906 145.191406 C 51.800781 145.375 51.820312 145.574219 51.957031 145.734375 C 52.085938 145.699219 52.074219 145.585938 52.09375 145.496094 C 53.347656 139.394531 54.863281 133.359375 56.730469 127.417969 C 58.34375 122.285156 60.21875 117.257812 62.773438 112.503906 C 65.515625 107.40625 68.949219 102.871094 73.554688 99.296875 C 77.925781 95.902344 82.820312 93.652344 88.300781 92.757812 C 92.445312 92.078125 96.558594 92.242188 100.554688 93.628906 C 106.070312 95.546875 109.964844 99.269531 112.394531 104.554688 C 113.714844 107.429688 114.429688 110.46875 114.832031 113.597656 C 115.308594 117.289062 115.304688 120.996094 115.0625 124.695312 C 114.621094 131.449219 113.417969 138.085938 111.914062 144.671875 C 110.175781 152.273438 108.011719 159.753906 105.644531 167.179688 C 103.828125 172.878906 101.871094 178.53125 99.792969 184.144531 C 97.796875 189.53125 95.722656 194.890625 93.601562 200.230469 C 91.597656 205.277344 89.644531 210.347656 87.460938 215.320312 C 86.5625 217.359375 85.625 219.378906 84.382812 221.238281 C 83.992188 221.824219 83.558594 222.375 83.0625 222.878906 C 81.339844 224.644531 79.3125 224.871094 77.085938 224.03125 C 76.585938 223.839844 76.085938 223.632812 75.613281 223.382812 C 72.265625 221.605469 68.890625 219.882812 65.792969 217.664062 C 62.886719 215.589844 59.914062 213.605469 56.960938 211.601562 C 56.621094 211.371094 56.597656 211.226562 56.875 210.941406 C 57.183594 210.621094 57.449219 210.25 57.734375 209.90625 C 57.835938 209.785156 57.914062 209.625 58.117188 209.632812 C 58.425781 209.964844 58.832031 210.15625 59.203125 210.402344 C 63.820312 213.4375 68.394531 216.535156 73.070312 219.476562 C 73.375 219.671875 73.691406 219.828125 74.058594 219.867188 C 75.296875 220 76.847656 219.039062 77.363281 217.804688 C 77.222656 217.765625 77.101562 217.835938 76.972656 217.867188 C 76.15625 218.078125 75.328125 218.128906 74.488281 218.007812 C 72.882812 217.777344 71.414062 217.160156 70 216.40625 C 66.164062 214.363281 62.46875 212.082031 58.703125 209.914062 C 58.511719 209.808594 58.351562 209.632812 58.105469 209.640625 Z M 93.488281 99.445312 C 93.351562 99.382812 93.320312 99.359375 93.277344 99.351562 C 93.179688 99.320312 93.078125 99.292969 92.976562 99.269531 C 90.042969 98.609375 87.105469 98.636719 84.171875 99.234375 C 78.515625 100.386719 73.851562 103.273438 69.960938 107.484375 C 66.601562 111.121094 64.246094 115.382812 62.34375 119.914062 C 60.417969 124.503906 58.941406 129.246094 57.566406 134.023438 C 57.535156 134.132812 57.433594 134.242188 57.558594 134.386719 C 57.636719 134.226562 57.707031 134.082031 57.777344 133.933594 C 58.460938 132.523438 59.125 131.105469 59.824219 129.699219 C 62.113281 125.097656 64.570312 120.585938 67.519531 116.359375 C 70.4375 112.183594 73.742188 108.367188 77.824219 105.269531 C 81.269531 102.652344 85.039062 100.71875 89.308594 99.847656 C 90.652344 99.578125 92.011719 99.429688 93.488281 99.445312 Z M 112.578125 127.003906 C 112.621094 127.003906 112.667969 127.003906 112.714844 127.003906 C 112.878906 125.664062 112.96875 124.3125 113.011719 122.964844 C 113.109375 119.839844 113.101562 116.71875 112.675781 113.613281 C 112.285156 110.757812 111.628906 107.976562 110.410156 105.355469 C 108.328125 100.878906 105.058594 97.632812 100.410156 95.859375 C 96.953125 94.539062 93.371094 94.289062 89.734375 94.71875 C 85.507812 95.21875 81.597656 96.660156 77.957031 98.859375 C 77.875 98.90625 77.734375 98.917969 77.746094 99.070312 C 77.761719 99.070312 77.777344 99.082031 77.789062 99.074219 C 77.859375 99.050781 77.929688 99.027344 78 98.996094 C 82.078125 97.140625 86.34375 96.34375 90.816406 96.753906 C 93.996094 97.046875 96.925781 98.070312 99.636719 99.75 C 100.9375 100.558594 102.023438 101.640625 103.238281 102.554688 C 106.207031 104.792969 108.320312 107.664062 109.800781 111.035156 C 111.667969 115.300781 112.410156 119.796875 112.574219 124.414062 C 112.605469 125.277344 112.578125 126.140625 112.578125 127.003906 Z M 3.191406 142.625 C 3.257812 142.480469 3.328125 142.332031 3.390625 142.183594 C 3.78125 141.28125 4.199219 140.390625 4.671875 139.527344 C 6.171875 136.777344 8.429688 134.703125 10.785156 132.738281 C 14.691406 129.484375 19.300781 128.070312 24.304688 127.816406 C 28.417969 127.605469 32.351562 128.40625 36.09375 130.144531 C 40.082031 131.996094 43.457031 134.671875 46.402344 137.914062 C 46.574219 138.101562 46.746094 138.289062 46.917969 138.480469 C 46.949219 138.347656 46.921875 138.265625 46.882812 138.191406 C 44.425781 133.472656 40.886719 129.835938 36.0625 127.535156 C 31.933594 125.5625 27.542969 124.992188 23.011719 125.363281 C 19.617188 125.636719 16.410156 126.554688 13.4375 128.226562 C 7.777344 131.410156 4.613281 136.394531 3.191406 142.625 Z M 76.644531 221.496094 C 77.300781 221.847656 77.925781 222.085938 78.578125 222.25 C 79.691406 222.539062 80.640625 222.261719 81.453125 221.457031 C 82.085938 220.832031 82.589844 220.113281 83.046875 219.355469 C 84.394531 217.109375 85.433594 214.710938 86.4375 212.300781 C 88.433594 207.523438 90.324219 202.703125 92.230469 197.890625 C 94.027344 193.355469 95.765625 188.800781 97.492188 184.238281 C 97.6875 183.714844 97.867188 183.183594 98.054688 182.652344 C 97.953125 182.703125 97.910156 182.777344 97.875 182.855469 C 96.019531 187.128906 94.121094 191.382812 92.121094 195.589844 C 89.875 200.324219 87.601562 205.046875 84.921875 209.554688 C 83.632812 211.722656 82.28125 213.847656 81.078125 216.070312 C 79.957031 218.128906 78.742188 220.144531 76.644531 221.496094 Z M 24.011719 130.007812 C 33.1875 131.019531 40.464844 135.644531 46.875 141.941406 C 46.859375 141.851562 46.828125 141.789062 46.785156 141.734375 C 44.0625 138.167969 40.847656 135.148438 36.910156 132.960938 C 32.898438 130.730469 28.609375 129.675781 24.011719 130.007812 Z M 24.011719 130.007812 " fill-opacity="1" fill-rule="nonzero"/></g><path fill="#ffffff" d="M 40.074219 188.125 C 41.867188 188.167969 43.449219 188.726562 44.933594 189.574219 C 46.484375 190.460938 48.136719 190.945312 49.910156 191.09375 C 51.113281 191.195312 52.320312 191.300781 53.515625 191.507812 C 55.894531 191.921875 58.09375 192.792969 60.011719 194.273438 C 61.875 195.714844 62.867188 197.570312 62.351562 199.988281 C 61.917969 202.023438 60.753906 203.558594 58.976562 204.640625 C 57.554688 205.507812 55.964844 205.851562 54.355469 206.132812 C 52.929688 206.382812 51.5 206.621094 50.074219 206.890625 C 48.984375 207.097656 48.113281 207.660156 47.457031 208.5625 C 46.640625 209.6875 46.179688 210.992188 45.613281 212.242188 C 44.742188 214.167969 43.679688 215.96875 41.96875 217.277344 C 40.226562 218.605469 38.320312 219.234375 36.195312 218.261719 C 34.675781 217.570312 33.730469 216.3125 33.105469 214.796875 C 32.429688 213.167969 32.417969 211.511719 32.976562 209.84375 C 33.136719 209.363281 33.292969 208.875 33.503906 208.414062 C 34.320312 206.632812 34.421875 204.792969 34.042969 202.890625 C 33.683594 201.058594 33.160156 199.238281 33.164062 197.363281 C 33.171875 193.960938 34.386719 191.085938 37.167969 189.003906 C 38.035156 188.355469 39.0625 188.140625 40.074219 188.125 Z M 40.074219 188.125 " fill-opacity="1" fill-rule="nonzero"/><path fill="#ffffff" d="M 21.847656 188.078125 C 21.851562 187.464844 21.933594 186.859375 22.105469 186.265625 C 22.785156 183.902344 24.941406 182.941406 27.152344 184.023438 C 28.449219 184.660156 29.429688 185.652344 30.199219 186.855469 C 31.453125 188.8125 32.109375 190.933594 31.855469 193.277344 C 31.792969 193.847656 31.617188 194.386719 31.371094 194.90625 C 30.582031 196.578125 28.871094 197.265625 27.128906 196.632812 C 25.898438 196.179688 24.941406 195.371094 24.121094 194.371094 C 22.722656 192.660156 21.835938 190.207031 21.847656 188.078125 Z M 21.847656 188.078125 " fill-opacity="1" fill-rule="nonzero"/><path fill="#ffffff" d="M 37.082031 186.570312 C 35.191406 186.464844 33.285156 185.4375 31.679688 183.808594 C 30.597656 182.714844 29.796875 181.449219 29.566406 179.886719 C 29.25 177.710938 30.585938 176.039062 32.789062 175.921875 C 35.007812 175.800781 36.863281 176.710938 38.5 178.117188 C 39.675781 179.128906 40.585938 180.335938 41.035156 181.847656 C 41.042969 181.878906 41.050781 181.90625 41.058594 181.933594 C 41.8125 184.5625 40.253906 186.609375 37.082031 186.570312 Z M 37.082031 186.570312 " fill-opacity="1" fill-rule="nonzero"/><path fill="#ffffff" d="M 51.703125 189.453125 C 48.554688 189.425781 45.074219 186.960938 44.175781 184.117188 C 43.527344 182.074219 44.601562 180.277344 46.710938 179.914062 C 48.511719 179.605469 50.148438 180.125 51.683594 181.003906 C 53.03125 181.773438 54.144531 182.800781 54.886719 184.1875 C 56.394531 187 54.898438 189.476562 51.703125 189.453125 Z M 51.703125 189.453125 " fill-opacity="1" fill-rule="nonzero"/><path fill="#ffffff" d="M 30.632812 206.027344 C 30.613281 206.972656 30.480469 207.914062 29.996094 208.773438 C 29.46875 209.714844 28.609375 210.097656 27.609375 209.683594 C 24.3125 208.320312 22.171875 205.957031 21.578125 202.367188 C 21.371094 201.105469 21.59375 199.886719 22.378906 198.832031 C 23.445312 197.398438 25.109375 197.082031 26.621094 198.027344 C 27.703125 198.703125 28.457031 199.683594 29.074219 200.773438 C 29.992188 202.398438 30.589844 204.117188 30.632812 206.027344 Z M 30.632812 206.027344 " fill-opacity="1" fill-rule="nonzero"/><g clip-path="url(#87d5bf7a83)"><g clip-path="url(#bccfcca627)"><g clip-path="url(#beb9bf191e)"><path fill="#ffffff" d="M 151.535156 113.429688 C 151.644531 113.679688 151.757812 113.835938 152.070312 113.679688 C 152.394531 113.519531 152.546875 113.648438 152.558594 114.039062 C 152.5625 114.207031 152.582031 114.375 152.582031 114.542969 C 152.578125 114.703125 152.554688 114.863281 152.535156 115.074219 C 152.917969 115.191406 153.332031 115.125 153.738281 114.984375 C 153.785156 114.96875 153.816406 114.902344 153.863281 114.894531 C 154.382812 114.796875 154.90625 114.667969 155.433594 114.628906 C 155.890625 114.597656 156.085938 114.878906 156.0625 115.347656 C 156.054688 115.5 156.109375 115.652344 156.148438 115.871094 C 156.058594 115.796875 156.003906 115.738281 155.941406 115.710938 C 155.886719 115.6875 155.804688 115.675781 155.765625 115.707031 C 155.726562 115.734375 155.703125 115.828125 155.71875 115.875 C 155.871094 116.339844 155.875 116.339844 155.796875 116.71875 C 155.871094 116.671875 155.941406 116.613281 156.023438 116.585938 C 156.15625 116.539062 156.292969 116.515625 156.425781 116.480469 C 156.394531 116.601562 156.402344 116.765625 156.324219 116.847656 C 155.613281 117.597656 154.890625 118.335938 154.160156 119.066406 C 153.628906 119.589844 153.082031 120.09375 152.53125 120.59375 C 152.421875 120.691406 152.257812 120.738281 152.113281 120.765625 C 151.804688 120.820312 151.652344 120.714844 151.820312 120.324219 C 151.664062 120.339844 151.550781 120.351562 151.375 120.371094 C 151.523438 120.640625 151.632812 120.839844 151.75 121.046875 C 151.476562 121.324219 151.148438 121.683594 150.78125 122 C 150.65625 122.109375 150.425781 122.097656 150.246094 122.140625 C 150.214844 122.113281 150.179688 122.085938 150.148438 122.058594 C 150.109375 122.253906 150.078125 122.449219 150.03125 122.640625 C 150.015625 122.699219 149.972656 122.773438 149.921875 122.792969 C 149.589844 122.933594 149.308594 123.140625 149.070312 123.414062 C 148.9375 123.570312 148.777344 123.75 148.59375 123.808594 C 148.074219 123.976562 147.816406 124.464844 147.382812 124.734375 C 146.734375 125.140625 146.101562 125.566406 145.460938 125.984375 C 145.242188 126.128906 145.027344 126.277344 144.804688 126.410156 C 144.144531 126.800781 143.480469 127.183594 142.820312 127.574219 C 142.4375 127.796875 142.0625 128.035156 141.679688 128.253906 C 141.570312 128.320312 141.433594 128.34375 141.320312 128.402344 C 141.113281 128.515625 140.90625 128.636719 140.703125 128.757812 C 140.613281 128.8125 140.535156 128.886719 140.441406 128.933594 C 139.785156 129.246094 139.125 129.542969 138.472656 129.867188 C 138.078125 130.066406 137.707031 130.308594 137.316406 130.511719 C 136.5 130.9375 135.675781 131.347656 134.859375 131.773438 C 133.820312 132.3125 132.789062 132.871094 131.746094 133.410156 C 131.226562 133.679688 130.6875 133.910156 130.171875 134.1875 C 129.785156 134.390625 129.4375 134.664062 129.050781 134.855469 C 128.585938 135.082031 128.097656 135.253906 127.566406 135.46875 C 127.488281 135.5625 127.378906 135.765625 127.207031 135.863281 C 126.511719 136.265625 125.785156 136.613281 125.09375 137.019531 C 124.253906 137.507812 123.476562 138.109375 122.605469 138.519531 C 121.507812 139.03125 120.609375 139.875 119.476562 140.316406 C 119.285156 140.390625 119.097656 140.476562 118.929688 140.550781 C 118.824219 140.464844 118.6875 140.296875 118.625 140.320312 C 118.429688 140.394531 118.113281 140.535156 118.109375 140.660156 C 118.089844 141.246094 117.660156 141.179688 117.304688 141.261719 C 117.125 141.300781 116.949219 141.367188 116.769531 141.421875 C 116.304688 141.570312 115.835938 141.714844 115.375 141.871094 C 114.964844 142.003906 114.609375 142.308594 114.132812 142.230469 C 113.878906 142.1875 113.613281 142.199219 113.367188 142.136719 C 113.25 142.105469 113.097656 141.964844 113.082031 141.851562 C 113.066406 141.753906 113.1875 141.570312 113.292969 141.523438 C 113.601562 141.382812 113.636719 141.234375 113.453125 140.949219 C 113.292969 140.699219 113.480469 140.316406 113.785156 140.191406 C 114.132812 140.046875 114.277344 139.773438 114.382812 139.429688 C 114.292969 139.417969 114.261719 139.410156 114.242188 139.417969 C 114.113281 139.460938 113.988281 139.503906 113.863281 139.546875 C 113.902344 139.417969 113.914062 139.261719 113.992188 139.160156 C 114.152344 138.960938 114.351562 138.789062 114.597656 138.542969 C 114.648438 139.113281 115.003906 139.164062 115.417969 139.191406 C 115.386719 138.84375 115.554688 138.710938 115.875 138.609375 C 116.234375 138.5 116.554688 138.253906 116.882812 138.054688 C 116.929688 138.027344 116.949219 137.949219 117.007812 137.847656 C 116.515625 137.996094 116.242188 138.320312 115.828125 138.164062 C 115.785156 138.152344 115.644531 138.273438 115.632812 138.34375 C 115.574219 138.722656 115.234375 138.617188 115.015625 138.714844 C 115.011719 138.71875 114.886719 138.558594 114.90625 138.5 C 115.007812 138.175781 115.152344 137.878906 115.433594 137.929688 C 115.742188 137.6875 115.976562 137.523438 116.1875 137.335938 C 116.339844 137.199219 116.449219 137.011719 116.605469 136.882812 C 117.628906 136.015625 118.664062 135.152344 119.695312 134.289062 C 120.101562 133.949219 120.496094 133.59375 120.902344 133.25 C 121.652344 132.621094 122.390625 131.980469 123.15625 131.371094 C 123.707031 130.933594 124.289062 130.535156 124.855469 130.121094 C 125.207031 129.871094 125.558594 129.617188 125.90625 129.363281 C 126.621094 128.84375 127.328125 128.304688 128.054688 127.800781 C 128.746094 127.320312 129.464844 126.875 130.167969 126.40625 C 130.667969 126.078125 131.15625 125.734375 131.660156 125.414062 C 131.863281 125.285156 132.09375 125.195312 132.3125 125.085938 C 132.359375 125.0625 132.429688 125.058594 132.453125 125.023438 C 132.855469 124.441406 133.515625 124.21875 134.074219 123.855469 C 134.742188 123.421875 135.402344 122.976562 136.078125 122.554688 C 136.878906 122.058594 137.683594 121.574219 138.492188 121.09375 C 138.632812 121.007812 138.820312 121 138.953125 120.902344 C 139.160156 120.75 139.316406 120.519531 139.53125 120.382812 C 139.867188 120.167969 140.25 120.019531 140.589844 119.808594 C 140.988281 119.566406 141.367188 119.285156 141.753906 119.019531 C 142.195312 118.714844 142.648438 118.425781 143.078125 118.101562 C 143.917969 117.46875 144.742188 116.8125 145.578125 116.171875 C 145.722656 116.0625 145.894531 115.996094 146.042969 115.890625 C 146.25 115.746094 146.449219 115.578125 146.652344 115.425781 C 146.941406 115.207031 147.230469 114.980469 147.527344 114.777344 C 147.917969 114.503906 148.308594 114.234375 148.714844 113.984375 C 149.019531 113.800781 149.34375 113.65625 149.660156 113.492188 C 149.671875 113.484375 149.695312 113.488281 149.699219 113.480469 C 149.914062 112.945312 150.457031 112.863281 150.878906 112.605469 C 151.222656 112.390625 151.488281 112.050781 151.828125 111.820312 C 152.035156 111.683594 152.308594 111.621094 152.558594 111.582031 C 152.789062 111.542969 152.800781 111.714844 152.746094 111.894531 C 152.679688 112.125 152.625 112.363281 152.554688 112.59375 C 152.53125 112.660156 152.480469 112.734375 152.421875 112.777344 C 152.136719 112.996094 151.839844 113.207031 151.535156 113.429688 Z M 142.664062 119.824219 C 142.507812 119.898438 142.359375 119.949219 142.230469 120.03125 C 141.867188 120.277344 141.511719 120.535156 141.15625 120.789062 C 141.070312 120.851562 140.980469 120.90625 140.90625 120.980469 C 140.671875 121.210938 140.492188 121.523438 140.074219 121.417969 C 140.007812 121.398438 139.890625 121.507812 139.820312 121.582031 C 139.648438 121.769531 139.585938 121.890625 139.929688 122.015625 C 140.269531 122.136719 140.464844 121.96875 140.6875 121.8125 C 141.234375 121.421875 141.773438 121.019531 142.320312 120.625 C 142.351562 120.605469 142.394531 120.601562 142.433594 120.589844 C 142.953125 120.410156 142.957031 120.398438 142.660156 119.824219 Z M 139.542969 121.914062 C 139.222656 122.046875 138.949219 122.144531 138.683594 122.273438 C 138.640625 122.296875 138.609375 122.4375 138.632812 122.496094 C 138.710938 122.679688 139.253906 122.769531 139.511719 122.667969 C 139.839844 122.542969 139.652344 122.355469 139.582031 122.175781 C 139.5625 122.117188 139.5625 122.050781 139.542969 121.914062 Z M 142.980469 119.558594 C 142.945312 119.578125 142.90625 119.597656 142.871094 119.617188 C 142.910156 119.753906 142.910156 119.929688 143 120.011719 C 143.058594 120.066406 143.273438 120.035156 143.359375 119.96875 C 143.570312 119.804688 143.746094 119.597656 144.003906 119.34375 C 143.78125 119.3125 143.589844 119.246094 143.425781 119.285156 C 143.347656 119.300781 143.316406 119.519531 143.257812 119.667969 C 143.1875 119.640625 143.085938 119.601562 142.984375 119.558594 Z M 116.074219 139.445312 C 116.050781 139.40625 116.027344 139.371094 116.003906 139.335938 C 115.691406 139.53125 115.378906 139.722656 115.027344 139.941406 C 115.472656 140.089844 115.867188 139.882812 116.074219 139.445312 Z M 151.21875 113.496094 C 151.023438 113.652344 150.875 113.757812 150.746094 113.878906 C 150.695312 113.929688 150.679688 114.023438 150.644531 114.09375 C 150.734375 114.132812 150.859375 114.226562 150.90625 114.195312 C 151.113281 114.058594 151.300781 113.886719 151.515625 113.710938 C 151.382812 113.613281 151.285156 113.539062 151.21875 113.496094 Z M 117.480469 137.5625 C 117.660156 137.304688 117.792969 137.113281 117.9375 136.910156 C 117.402344 136.832031 117.273438 136.984375 117.480469 137.5625 Z M 149.152344 121.921875 C 149.117188 122 149.085938 122.082031 149.050781 122.160156 C 149.199219 122.238281 149.34375 122.3125 149.492188 122.390625 C 149.542969 122.285156 149.597656 122.179688 149.648438 122.074219 C 149.484375 122.023438 149.316406 121.972656 149.152344 121.921875 Z M 143.265625 121.800781 C 143.699219 121.996094 143.914062 121.882812 144.101562 121.324219 C 143.785156 121.503906 143.554688 121.636719 143.265625 121.800781 Z M 140.671875 123.738281 C 140.867188 123.683594 141.035156 123.648438 141.199219 123.589844 C 141.257812 123.566406 141.304688 123.492188 141.332031 123.429688 C 141.34375 123.410156 141.289062 123.335938 141.25 123.320312 C 141.042969 123.234375 140.6875 123.492188 140.671875 123.738281 Z M 146.726562 119.746094 C 146.699219 119.703125 146.671875 119.65625 146.644531 119.609375 C 146.375 119.59375 146.101562 119.566406 146.128906 120.132812 C 146.375 119.976562 146.550781 119.863281 146.726562 119.746094 Z M 138.367188 122.859375 C 138.347656 122.785156 138.328125 122.707031 138.308594 122.628906 C 138.191406 122.683594 138.035156 122.707031 137.960938 122.796875 C 137.90625 122.863281 137.917969 123.035156 137.96875 123.121094 C 137.996094 123.171875 138.1875 123.171875 138.261719 123.128906 C 138.324219 123.089844 138.332031 122.953125 138.367188 122.859375 Z M 144.640625 119.023438 C 144.390625 119.007812 144.171875 118.992188 143.953125 118.980469 L 143.953125 119.160156 C 144.164062 119.160156 144.375 119.160156 144.585938 119.15625 C 144.589844 119.15625 144.59375 119.136719 144.640625 119.023438 Z M 142.070312 122.476562 C 142.417969 122.757812 142.664062 122.722656 142.867188 122.40625 C 142.609375 122.429688 142.367188 122.453125 142.070312 122.476562 Z M 113.988281 140.71875 C 114.222656 140.519531 114.429688 140.347656 114.683594 140.136719 C 114.179688 140.101562 114.019531 140.328125 113.988281 140.71875 Z M 113.988281 140.71875 " fill-opacity="1" fill-rule="nonzero"/></g></g></g><g clip-path="url(#4445b0d834)"><g clip-path="url(#5a75b715f6)"><g clip-path="url(#1dcf46af80)"><path fill="#ffffff" d="M 134.351562 164.429688 C 134.308594 163.796875 134.6875 163.925781 135.03125 163.929688 C 135.917969 163.9375 136.804688 163.894531 137.691406 163.914062 C 138.328125 163.929688 138.964844 164.007812 139.601562 164.070312 C 140.402344 164.148438 141.1875 164.304688 142.003906 164.242188 C 142.40625 164.207031 142.832031 164.324219 143.226562 164.433594 C 143.480469 164.5 143.753906 164.636719 143.699219 165.039062 C 143.613281 165.011719 143.550781 164.976562 143.484375 164.96875 C 143.402344 164.960938 143.316406 164.964844 143.234375 164.980469 C 143.21875 164.980469 143.199219 165.097656 143.214844 165.109375 C 143.285156 165.160156 143.367188 165.214844 143.445312 165.226562 C 143.714844 165.269531 143.988281 165.296875 144.257812 165.324219 C 144.316406 165.332031 144.414062 165.316406 144.429688 165.285156 C 144.457031 165.226562 144.453125 165.136719 144.425781 165.074219 C 144.367188 164.949219 144.28125 164.832031 144.207031 164.710938 C 143.910156 164.851562 143.804688 164.777344 143.808594 164.378906 C 144.214844 164.324219 144.410156 164.59375 144.589844 164.886719 C 144.667969 165.015625 144.742188 165.140625 144.820312 165.269531 C 144.964844 165.175781 145.109375 165.082031 145.269531 164.980469 C 145.035156 164.824219 144.851562 164.703125 144.601562 164.535156 C 144.917969 164.410156 145.128906 164.234375 145.394531 164.441406 C 145.425781 164.464844 145.488281 164.46875 145.535156 164.464844 C 145.867188 164.429688 146.203125 164.390625 146.535156 164.359375 C 146.960938 164.316406 147.390625 164.214844 147.804688 164.25 C 148.226562 164.289062 148.710938 164.113281 149.0625 164.5625 C 149.148438 164.671875 149.46875 164.730469 149.59375 164.65625 C 150.046875 164.402344 150.5 164.402344 151 164.421875 C 151.402344 164.441406 151.8125 164.304688 152.214844 164.488281 C 152.953125 164.117188 153.753906 164.40625 154.515625 164.285156 C 154.886719 164.222656 155.269531 164.191406 155.648438 164.1875 C 155.867188 164.183594 156.21875 164.113281 156.058594 164.566406 C 156.042969 164.605469 156.125 164.675781 156.160156 164.730469 C 156.207031 164.679688 156.292969 164.625 156.289062 164.578125 C 156.242188 164.136719 156.515625 164.105469 156.839844 164.136719 C 157.488281 164.203125 158.132812 164.296875 158.78125 164.339844 C 159.394531 164.378906 160.015625 164.359375 160.628906 164.382812 C 160.828125 164.390625 161.023438 164.449219 161.222656 164.484375 C 161.296875 164.496094 161.378906 164.542969 161.441406 164.527344 C 162.054688 164.359375 162.667969 164.332031 163.269531 164.570312 C 163.324219 164.589844 163.414062 164.589844 163.453125 164.558594 C 163.71875 164.367188 163.910156 164.390625 164.023438 164.769531 C 164.222656 164.679688 164.390625 164.589844 164.570312 164.527344 C 164.65625 164.496094 164.765625 164.503906 164.859375 164.519531 C 164.882812 164.519531 164.917969 164.660156 164.890625 164.6875 C 164.828125 164.757812 164.730469 164.800781 164.609375 164.882812 C 164.601562 165.035156 164.585938 165.25 164.566406 165.554688 C 164.867188 165.355469 165.078125 165.210938 165.308594 165.054688 C 165.273438 164.988281 165.234375 164.933594 165.226562 164.878906 C 165.214844 164.800781 165.230469 164.714844 165.234375 164.636719 C 165.316406 164.675781 165.449219 164.695312 165.476562 164.761719 C 165.789062 165.484375 166.46875 165.667969 167.109375 165.917969 C 167.230469 165.964844 167.347656 166.023438 167.46875 166.085938 C 167.773438 166.242188 168.085938 166.386719 168.378906 166.566406 C 168.707031 166.765625 168.984375 167.09375 169.332031 167.191406 C 169.757812 167.3125 169.992188 167.644531 170.34375 167.824219 C 170.550781 167.933594 170.824219 167.917969 171.015625 168.042969 C 171.175781 168.140625 171.339844 168.359375 171.347656 168.53125 C 171.359375 168.78125 171.386719 169.105469 170.949219 169.152344 C 170.675781 169.183594 170.453125 169.222656 170.167969 169.117188 C 169.878906 169.011719 169.519531 169.085938 169.195312 169.085938 C 169.148438 169.085938 169.078125 169.132812 169.066406 169.171875 C 168.875 169.796875 168.289062 169.664062 167.851562 169.828125 C 167.527344 169.945312 167.171875 170.101562 166.941406 170.34375 C 166.515625 170.78125 165.621094 170.773438 165.28125 170.265625 C 165.238281 170.203125 165.15625 170.167969 165.078125 170.109375 C 164.9375 170.679688 164.878906 170.722656 164.332031 170.699219 C 164.265625 170.699219 164.179688 170.667969 164.136719 170.695312 C 163.539062 171.117188 163.132812 170.558594 162.644531 170.414062 C 162.589844 170.398438 162.554688 170.328125 162.429688 170.316406 C 162.476562 170.480469 162.527344 170.648438 162.59375 170.878906 C 162.457031 170.765625 162.375 170.695312 162.332031 170.65625 C 162.101562 170.804688 161.898438 170.941406 161.699219 171.070312 C 161.5625 170.8125 161.480469 170.648438 161.394531 170.484375 C 161.351562 170.496094 161.304688 170.507812 161.261719 170.523438 C 161.253906 170.683594 161.25 170.839844 161.242188 171.082031 C 161.042969 171.066406 160.835938 171.023438 160.632812 171.03125 C 160.28125 171.042969 159.933594 171.097656 159.582031 171.117188 C 159.183594 171.140625 158.808594 171.191406 158.46875 170.824219 C 158.152344 170.484375 158.261719 171.019531 158.101562 171 C 157.753906 171.050781 157.40625 171.136719 157.0625 171.132812 C 156.828125 171.132812 156.59375 171.003906 156.355469 170.941406 C 156.261719 170.917969 156.101562 170.867188 156.070312 170.910156 C 155.703125 171.355469 155.25 171.097656 154.824219 171.085938 C 154.738281 171.082031 154.652344 171.09375 154.566406 171.105469 C 154.101562 171.179688 153.636719 171.25 153.171875 171.324219 C 152.945312 171.363281 152.71875 171.445312 152.488281 171.449219 C 151.726562 171.457031 150.957031 171.496094 150.207031 171.40625 C 149.648438 171.339844 149.109375 171.402344 148.558594 171.417969 C 148.4375 171.417969 148.3125 171.339844 148.1875 171.332031 C 147.699219 171.300781 147.164062 171.109375 146.746094 171.183594 C 146.339844 171.253906 145.921875 171.320312 145.511719 171.335938 C 144.921875 171.363281 144.328125 171.3125 143.734375 171.285156 C 143.214844 171.261719 142.695312 171.230469 142.179688 171.179688 C 141.90625 171.152344 141.640625 171.070312 141.371094 171.027344 C 141.195312 171 141.015625 171.003906 140.839844 170.996094 C 140.773438 170.992188 140.6875 171.035156 140.648438 171.007812 C 140.234375 170.714844 139.742188 170.78125 139.28125 170.695312 C 139.011719 170.644531 138.726562 170.671875 138.453125 170.648438 C 137.847656 170.59375 137.242188 170.519531 136.632812 170.472656 C 135.410156 170.375 134.179688 170.316406 132.957031 170.203125 C 131.886719 170.105469 130.820312 169.96875 129.757812 169.824219 C 129.480469 169.789062 129.214844 169.660156 128.945312 169.578125 C 128.875 169.558594 128.796875 169.5625 128.726562 169.570312 C 128.625 169.582031 128.523438 169.632812 128.421875 169.625 C 127.851562 169.574219 127.285156 169.507812 126.710938 169.460938 C 126.558594 169.445312 126.402344 169.484375 126.25 169.472656 C 125.882812 169.445312 125.511719 169.402344 125.144531 169.359375 C 125.105469 169.355469 125.0625 169.304688 125.039062 169.316406 C 124.332031 169.59375 123.636719 169.332031 122.960938 169.207031 C 122.28125 169.082031 121.617188 168.789062 120.984375 168.492188 C 120.5625 168.289062 120.578125 167.933594 120.941406 167.609375 C 121.453125 167.15625 121.453125 166.902344 120.941406 166.457031 C 120.84375 166.371094 120.726562 166.304688 120.636719 166.210938 C 120.546875 166.121094 120.449219 166.019531 120.410156 165.902344 C 120.289062 165.515625 120.773438 164.695312 121.175781 164.636719 C 122.429688 164.457031 123.683594 164.300781 124.941406 164.132812 C 125.398438 164.074219 125.851562 163.988281 126.308594 163.957031 C 126.625 163.9375 126.945312 163.992188 127.390625 164.015625 C 127.730469 163.730469 129.042969 163.699219 129.308594 164.027344 C 129.492188 163.960938 129.648438 163.855469 129.808594 163.859375 C 130.460938 163.875 131.109375 163.9375 131.757812 163.949219 C 132.238281 163.960938 132.714844 163.882812 133.191406 163.914062 C 133.480469 163.933594 133.765625 164.082031 134.046875 164.191406 C 134.136719 164.226562 134.203125 164.308594 134.347656 164.421875 Z M 143.457031 170.222656 C 143.535156 169.636719 143.496094 169.582031 142.96875 169.589844 C 142.828125 169.59375 142.691406 169.691406 142.546875 169.71875 C 142.441406 169.742188 142.328125 169.738281 142.222656 169.71875 C 141.808594 169.628906 141.394531 169.472656 140.976562 169.453125 C 140.632812 169.433594 140.324219 169.425781 140.015625 169.25 C 139.628906 169.03125 139.335938 169.105469 139.089844 169.460938 C 138.894531 169.351562 138.707031 169.195312 138.492188 169.136719 C 138.183594 169.050781 137.855469 169.015625 137.53125 168.996094 C 137.460938 168.992188 137.382812 169.152344 137.304688 169.238281 C 137.394531 169.296875 137.472656 169.390625 137.570312 169.410156 C 137.960938 169.492188 138.351562 169.558594 138.742188 169.621094 C 138.890625 169.644531 139.054688 169.609375 139.183594 169.660156 C 139.515625 169.800781 139.828125 170.035156 140.191406 169.722656 C 140.242188 169.679688 140.394531 169.734375 140.488281 169.769531 C 140.65625 169.832031 140.820312 169.914062 140.988281 169.984375 C 141.324219 170.132812 141.636719 170.195312 141.78125 169.871094 C 142.039062 169.996094 142.269531 170.105469 142.515625 170.21875 C 142.855469 169.515625 143.125 170.195312 143.453125 170.222656 Z M 142.742188 168.355469 C 142.53125 168 141.269531 167.742188 141.015625 167.996094 C 141.558594 168.257812 142.101562 168.394531 142.742188 168.355469 Z M 138.0625 167.816406 C 138.1875 167.867188 138.230469 167.898438 138.28125 167.90625 C 138.59375 167.949219 138.90625 167.988281 139.21875 168.015625 C 139.269531 168.019531 139.363281 167.957031 139.363281 167.921875 C 139.367188 167.851562 139.328125 167.730469 139.285156 167.722656 C 138.945312 167.652344 138.601562 167.589844 138.253906 167.554688 C 138.207031 167.546875 138.136719 167.710938 138.0625 167.816406 Z M 161.523438 165.410156 C 161.515625 165.195312 161.5625 164.957031 161.492188 164.914062 C 161.320312 164.800781 161.09375 164.765625 160.882812 164.730469 C 160.828125 164.71875 160.726562 164.816406 160.691406 164.886719 C 160.671875 164.929688 160.726562 165.035156 160.773438 165.074219 C 160.902344 165.179688 161.042969 165.269531 161.191406 165.347656 C 161.269531 165.386719 161.367188 165.382812 161.523438 165.410156 Z M 152.101562 165.261719 C 151.886719 165.074219 151.71875 164.917969 151.539062 164.78125 C 151.496094 164.746094 151.375 164.75 151.335938 164.785156 C 151.296875 164.824219 151.292969 164.933594 151.316406 164.992188 C 151.410156 165.1875 151.523438 165.371094 151.644531 165.582031 C 151.78125 165.484375 151.882812 165.414062 152.101562 165.261719 Z M 145.59375 164.765625 C 145.789062 164.960938 145.980469 165.164062 146.1875 165.347656 C 146.226562 165.382812 146.347656 165.378906 146.390625 165.34375 C 146.433594 165.308594 146.445312 165.207031 146.433594 165.140625 C 146.363281 164.65625 145.964844 164.753906 145.59375 164.761719 Z M 143.003906 168.15625 C 143.367188 168.648438 143.578125 168.597656 144.179688 168.425781 C 143.84375 168.277344 143.546875 168.136719 143.234375 168.019531 C 143.1875 168 143.097656 168.097656 143 168.15625 Z M 154.808594 164.5625 C 154.769531 164.820312 154.742188 165.003906 154.703125 165.273438 C 154.929688 165.164062 155.042969 165.113281 155.121094 165.074219 C 155.261719 165.1875 155.371094 165.277344 155.480469 165.367188 C 155.515625 165.324219 155.550781 165.285156 155.585938 165.242188 C 155.363281 165.046875 155.140625 164.851562 154.808594 164.5625 Z M 140.542969 168.070312 C 140.460938 167.632812 140.066406 167.816406 139.855469 167.6875 C 139.792969 167.652344 139.644531 167.765625 139.535156 167.816406 C 139.550781 167.839844 139.5625 167.863281 139.574219 167.886719 C 139.886719 167.945312 140.191406 168.003906 140.542969 168.070312 Z M 147.007812 164.894531 C 146.949219 164.917969 146.890625 164.941406 146.832031 164.964844 C 146.882812 165.085938 146.921875 165.21875 147 165.324219 C 147.035156 165.371094 147.148438 165.363281 147.226562 165.378906 C 147.152344 165.21875 147.078125 165.054688 147.003906 164.890625 Z M 148.246094 165.023438 C 148.300781 165.042969 148.351562 165.0625 148.40625 165.082031 C 148.53125 165.0625 148.660156 165.042969 148.78125 165.007812 C 148.792969 165.003906 148.773438 164.804688 148.746094 164.800781 C 148.621094 164.777344 148.484375 164.765625 148.363281 164.796875 C 148.308594 164.8125 148.285156 164.945312 148.246094 165.023438 Z M 126.113281 168.738281 C 126.265625 168.675781 126.375 168.628906 126.582031 168.542969 C 126.304688 168.425781 126.121094 168.34375 125.871094 168.234375 C 125.964844 168.4375 126.027344 168.566406 126.113281 168.738281 Z M 126.113281 168.738281 " fill-opacity="1" fill-rule="nonzero"/></g></g></g><g clip-path="url(#7b46a2b32c)"><g clip-path="url(#599916cccb)"><g clip-path="url(#3af6ddc494)"><path fill="#ffffff" d="M 118.984375 193.464844 C 119.441406 193.746094 119.882812 194.046875 120.347656 194.308594 C 120.820312 194.570312 121.3125 194.792969 121.820312 195.050781 C 121.898438 194.878906 121.945312 194.777344 122.007812 194.640625 C 122.265625 194.761719 122.546875 194.808594 122.542969 195.203125 C 122.539062 195.414062 123.140625 195.847656 123.445312 195.886719 C 123.441406 195.835938 123.433594 195.789062 123.433594 195.746094 C 123.4375 195.65625 123.441406 195.5625 123.460938 195.476562 C 123.464844 195.457031 123.589844 195.441406 123.597656 195.457031 C 123.644531 195.542969 123.6875 195.636719 123.703125 195.730469 C 123.722656 195.859375 123.664062 196.070312 123.726562 196.109375 C 123.914062 196.222656 124.140625 196.324219 124.355469 196.332031 C 124.789062 196.351562 125.191406 196.394531 125.519531 196.722656 C 125.609375 196.816406 125.753906 196.871094 125.882812 196.914062 C 126.160156 197.011719 126.460938 197.050781 126.707031 197.191406 C 126.8125 197.25 126.8125 197.496094 126.859375 197.652344 C 126.957031 197.742188 127.09375 197.828125 127.183594 197.949219 C 127.421875 198.265625 127.78125 198.367188 128.132812 198.195312 C 128.367188 198.082031 128.917969 198.261719 129.140625 198.558594 C 128.992188 198.566406 128.863281 198.554688 128.75 198.589844 C 128.679688 198.613281 128.636719 198.707031 128.582031 198.769531 C 128.648438 198.8125 128.738281 198.90625 128.777344 198.890625 C 128.9375 198.816406 129.1875 198.992188 129.277344 198.699219 C 129.285156 198.671875 129.617188 198.695312 129.753906 198.773438 C 130.351562 199.109375 130.929688 199.476562 131.519531 199.820312 C 131.816406 199.988281 131.90625 200.175781 131.828125 200.558594 C 132.121094 200.8125 132.410156 201.0625 132.699219 201.3125 C 133.03125 201.601562 133.171875 201.617188 133.710938 201.417969 C 133.578125 201.84375 133.839844 202.039062 134.164062 202.21875 C 134.378906 201.976562 134.53125 202.097656 134.683594 202.335938 C 135.050781 202.925781 135.601562 203.3125 136.203125 203.640625 C 136.554688 203.832031 136.882812 204.0625 137.234375 204.242188 C 137.460938 204.359375 137.714844 204.414062 138.015625 204.519531 C 138.277344 205.472656 139.042969 205.917969 140.09375 206.054688 C 139.703125 206.679688 140.394531 206.71875 140.625 206.984375 C 140.867188 207.257812 141.21875 207.445312 141.546875 207.621094 C 141.621094 207.660156 141.800781 207.507812 141.964844 207.425781 C 141.964844 207.429688 142.011719 207.546875 141.984375 207.640625 C 141.910156 207.898438 141.992188 207.941406 142.238281 207.898438 C 142.394531 207.871094 142.566406 207.914062 142.796875 207.929688 C 142.679688 208.074219 142.601562 208.164062 142.5625 208.214844 C 142.976562 208.386719 143.390625 208.550781 143.796875 208.730469 C 143.882812 208.769531 143.988281 208.863281 144.003906 208.945312 C 144.042969 209.207031 144.207031 209.304688 144.429688 209.390625 C 144.875 209.558594 145.148438 209.964844 145.511719 210.226562 C 145.914062 210.519531 146.199219 211.0625 146.808594 211.039062 C 146.90625 211.035156 147.042969 211.074219 147.097656 211.140625 C 147.410156 211.511719 147.835938 211.675781 148.253906 211.882812 C 148.546875 212.027344 148.792969 212.273438 149.046875 212.484375 C 149.238281 212.644531 149.347656 212.894531 149.699219 212.742188 C 149.804688 212.695312 150.039062 212.9375 150.214844 213.046875 C 150.5 213.222656 150.789062 213.390625 151.066406 213.574219 C 151.320312 213.746094 151.636719 213.886719 151.460938 214.351562 C 151.691406 214.324219 151.859375 214.304688 152.03125 214.289062 C 152.046875 214.304688 152.0625 214.324219 152.078125 214.34375 C 151.996094 214.398438 151.902344 214.441406 151.828125 214.511719 C 151.664062 214.667969 151.285156 214.765625 151.648438 215.09375 C 151.671875 215.121094 151.636719 215.28125 151.605469 215.289062 C 151.128906 215.40625 151.285156 215.804688 151.21875 216.109375 C 151.199219 216.203125 151.125 216.320312 151.042969 216.355469 C 150.738281 216.5 150.425781 216.648438 150.097656 216.726562 C 149.914062 216.769531 149.699219 216.679688 149.5 216.648438 C 149.496094 217.222656 149.640625 217.339844 150.234375 217.359375 C 150.6875 217.371094 150.71875 217.746094 150.773438 218.125 C 150.640625 218.097656 150.535156 218.074219 150.429688 218.054688 C 150.445312 218.089844 150.460938 218.125 150.476562 218.160156 C 150.15625 218.320312 149.835938 218.484375 149.511719 218.636719 C 149.457031 218.664062 149.347656 218.679688 149.320312 218.648438 C 148.996094 218.273438 148.492188 218.484375 148.109375 218.257812 C 147.75 218.042969 147.3125 217.964844 146.949219 217.761719 C 146.328125 217.414062 145.742188 217.003906 145.128906 216.640625 C 144.664062 216.363281 144.171875 216.132812 143.707031 215.855469 C 143.207031 215.558594 142.734375 215.230469 142.246094 214.914062 C 142.128906 214.835938 142.007812 214.765625 141.886719 214.691406 C 141.613281 214.523438 141.328125 214.371094 141.0625 214.191406 C 140.570312 213.863281 140.074219 213.539062 139.601562 213.179688 C 139.175781 212.859375 138.796875 212.476562 138.371094 212.160156 C 138.105469 211.964844 137.789062 211.84375 137.503906 211.679688 C 137.375 211.601562 137.230469 211.511719 137.152344 211.390625 C 136.945312 211.066406 136.734375 210.792969 136.320312 210.679688 C 136.09375 210.613281 135.914062 210.367188 135.636719 210.144531 C 135.554688 210.101562 135.347656 210.046875 135.222656 209.914062 C 134.839844 209.515625 134.414062 209.21875 133.914062 208.960938 C 133.34375 208.664062 132.871094 208.183594 132.351562 207.785156 C 132.144531 207.632812 131.933594 207.488281 131.714844 207.351562 C 131.25 207.074219 130.800781 206.769531 130.316406 206.539062 C 129.796875 206.289062 129.363281 205.960938 128.9375 205.570312 C 128.65625 205.308594 128.183594 205.265625 127.820312 205.085938 C 127.488281 204.917969 127.183594 204.695312 126.871094 204.496094 C 126.742188 204.410156 126.621094 204.308594 126.484375 204.234375 C 125.882812 203.90625 125.273438 203.585938 124.664062 203.261719 C 124.640625 203.246094 124.605469 203.242188 124.597656 203.222656 C 124.265625 202.378906 123.273438 202.457031 122.726562 201.890625 C 122.472656 201.625 122.050781 201.523438 121.714844 201.335938 C 121.46875 201.203125 121.230469 201.046875 120.992188 200.898438 C 120.957031 200.878906 120.933594 200.835938 120.902344 200.824219 C 120.097656 200.550781 119.558594 199.859375 118.808594 199.492188 C 118.753906 199.464844 118.683594 199.421875 118.632812 199.429688 C 118.269531 199.5 118.121094 199.21875 117.898438 199.023438 C 117.617188 198.773438 117.292969 198.558594 116.964844 198.371094 C 116.347656 198.027344 115.703125 197.730469 115.097656 197.378906 C 114.863281 197.242188 114.71875 197.019531 114.402344 196.9375 C 114.066406 196.851562 113.800781 196.511719 113.480469 196.320312 C 113.246094 196.183594 112.976562 196.109375 112.730469 195.996094 C 112.402344 195.847656 112.066406 195.707031 111.757812 195.523438 C 111.164062 195.171875 110.589844 194.777344 109.996094 194.421875 C 109.8125 194.3125 109.59375 194.265625 109.386719 194.207031 C 108.582031 193.96875 108.003906 193.375 107.355469 192.898438 C 107.207031 192.792969 107.046875 192.707031 106.894531 192.601562 C 106.8125 192.542969 106.683594 192.484375 106.667969 192.40625 C 106.550781 191.8125 106.15625 191.46875 105.691406 191.132812 C 105.40625 190.921875 105.226562 190.558594 105.015625 190.253906 C 104.988281 190.214844 105.03125 190.0625 105.066406 190.054688 C 105.179688 190.019531 105.363281 189.976562 105.421875 190.035156 C 105.609375 190.21875 105.796875 190.273438 106.054688 190.207031 C 106.140625 190.183594 106.265625 190.285156 106.367188 190.339844 C 106.519531 190.421875 106.671875 190.515625 106.84375 190.613281 C 106.898438 190.472656 106.917969 190.3125 106.96875 190.304688 C 107.375 190.238281 107.449219 189.9375 107.550781 189.609375 C 107.636719 189.316406 107.847656 189.191406 108.191406 189.269531 C 108.410156 189.316406 108.660156 189.230469 108.898438 189.210938 C 108.980469 189.207031 109.0625 189.210938 109.140625 189.226562 C 109.21875 189.238281 109.289062 189.289062 109.363281 189.292969 C 109.914062 189.351562 110.480469 189.355469 111.019531 189.464844 C 111.582031 189.582031 112.125 189.796875 112.671875 189.976562 C 113.089844 190.117188 113.5 190.273438 113.917969 190.425781 C 114.265625 190.554688 114.621094 190.671875 114.964844 190.8125 C 115.28125 190.945312 115.597656 191.085938 115.890625 191.261719 C 115.984375 191.320312 116.007812 191.507812 116.050781 191.640625 C 116.082031 191.753906 116.089844 191.871094 116.109375 191.988281 C 116.226562 191.933594 116.375 191.910156 116.460938 191.820312 C 116.71875 191.566406 116.917969 191.835938 117.128906 191.886719 C 117.28125 191.921875 117.410156 192.0625 117.550781 192.15625 C 117.355469 192.675781 117.367188 192.648438 117.914062 192.835938 C 118.210938 192.9375 118.464844 193.167969 118.742188 193.332031 C 118.824219 193.382812 118.917969 193.417969 119.007812 193.457031 L 119 193.457031 Z M 118.984375 193.464844 " fill-opacity="1" fill-rule="nonzero"/></g></g></g><g clip-path="url(#22567cd943)"><g clip-path="url(#ab5ca5d611)"><g clip-path="url(#30f3756626)"><path fill="#ffffff" d="M 167.488281 165.195312 C 167.363281 165.171875 167.238281 165.152344 167.082031 165.125 C 167.085938 165.28125 167.089844 165.367188 167.09375 165.457031 C 167.066406 165.472656 167.039062 165.480469 167.015625 165.496094 C 166.851562 165.265625 166.6875 165.035156 166.523438 164.804688 L 166.609375 164.726562 C 166.910156 164.84375 167.210938 164.960938 167.511719 165.078125 C 167.503906 165.117188 167.496094 165.15625 167.492188 165.195312 Z M 167.488281 165.195312 " fill-opacity="1" fill-rule="nonzero"/></g></g></g><g clip-path="url(#10f1fa5909)"><g clip-path="url(#1a9ddab2f9)"><g clip-path="url(#e3d8298c1b)"><path fill="#ffffff" d="M 120.601562 193.820312 C 120.773438 193.902344 120.949219 193.980469 121.121094 194.0625 C 121.117188 194.109375 121.109375 194.152344 121.105469 194.195312 C 120.96875 194.222656 120.804688 194.308594 120.699219 194.261719 C 120.597656 194.21875 120.554688 194.039062 120.484375 193.917969 C 120.523438 193.886719 120.5625 193.855469 120.597656 193.820312 Z M 120.601562 193.820312 " fill-opacity="1" fill-rule="nonzero"/></g></g></g><g clip-path="url(#87e8be19b9)"><g clip-path="url(#f5a7a855af)"><g clip-path="url(#b1801a9fc9)"><path fill="#ffffff" d="M 118.996094 193.46875 C 118.988281 193.304688 118.980469 193.140625 118.96875 192.851562 C 119.164062 192.992188 119.304688 193.089844 119.441406 193.1875 C 119.292969 193.28125 119.140625 193.375 118.988281 193.464844 C 118.988281 193.464844 118.996094 193.46875 118.996094 193.46875 Z M 118.996094 193.46875 " fill-opacity="1" fill-rule="nonzero"/></g></g></g><g clip-path="url(#ce2751dc49)"><path fill="#ffffff" d="M 81.609375 133.097656 C 81.347656 132.335938 80.820312 131.421875 80.128906 130.757812 C 79.625 130.277344 79.03125 129.917969 78.417969 129.796875 C 77.320312 129.585938 76.480469 129.882812 75.542969 130.410156 C 73.546875 131.546875 72.539062 133.492188 72.042969 135.6875 C 71.796875 136.769531 71.6875 137.917969 71.625 139.039062 C 71.304688 138.386719 70.863281 137.792969 70.222656 137.324219 C 69.171875 136.5625 67.632812 136.375 66.167969 136.660156 C 64.710938 136.941406 63.34375 137.671875 62.582031 138.65625 C 61.089844 140.578125 61.71875 143.054688 63.34375 145.519531 C 65.539062 148.847656 69.507812 152.136719 71.058594 153.691406 C 71.601562 154.234375 73.363281 156.574219 74.363281 157.4375 C 74.621094 157.660156 74.84375 157.796875 75.027344 157.84375 C 75.199219 157.90625 75.359375 157.90625 75.496094 157.882812 C 75.632812 157.855469 75.816406 157.769531 76 157.574219 C 76.148438 157.402344 76.347656 157.082031 76.554688 156.636719 C 77.554688 154.515625 79.132812 149.351562 79.292969 148.75 C 79.917969 146.445312 80.90625 143.84375 81.535156 141.195312 C 82.1875 138.445312 82.457031 135.648438 81.609375 133.097656 Z M 80.277344 140.898438 C 79.648438 143.523438 78.664062 146.125 78.046875 148.417969 C 77.910156 148.933594 76.714844 152.851562 75.765625 155.21875 C 75.582031 155.664062 75.347656 156.144531 75.1875 156.425781 C 75.078125 156.328125 74.941406 156.21875 74.84375 156.117188 C 73.832031 155.097656 72.453125 153.261719 71.984375 152.792969 C 70.46875 151.277344 66.574219 148.070312 64.417969 144.816406 C 63.132812 142.894531 62.417969 140.972656 63.589844 139.46875 C 64.183594 138.707031 65.277344 138.164062 66.402344 137.941406 C 67.507812 137.730469 68.667969 137.816406 69.457031 138.386719 C 70.382812 139.050781 70.6875 140.046875 71.007812 141.082031 C 71.121094 141.429688 71.292969 141.773438 71.578125 141.957031 C 71.589844 142.304688 71.871094 142.574219 72.21875 142.574219 C 72.574219 142.574219 72.871094 142.292969 72.871094 141.933594 C 72.871094 140.109375 72.859375 137.953125 73.289062 135.996094 C 73.707031 134.171875 74.496094 132.507812 76.160156 131.558594 C 76.8125 131.1875 77.394531 130.941406 78.15625 131.089844 C 78.539062 131.164062 78.898438 131.398438 79.21875 131.707031 C 79.757812 132.222656 80.179688 132.9375 80.375 133.53125 C 81.152344 135.835938 80.882812 138.386719 80.277344 140.898438 Z M 99.242188 143.117188 C 98.148438 141.859375 96.667969 142.046875 95.273438 143.007812 C 94.214844 143.734375 93.21875 144.929688 92.589844 146.050781 C 92.539062 146.136719 92.488281 146.234375 92.441406 146.320312 C 92.355469 145.914062 92.242188 145.519531 92.070312 145.285156 C 90.285156 142.820312 86.613281 142.820312 85.378906 145.679688 C 84.835938 146.9375 85.230469 148.367188 86.082031 149.734375 C 87.191406 151.535156 89.078125 153.246094 89.988281 154.320312 C 90.914062 155.402344 91.515625 156.671875 92.355469 157.796875 C 92.378906 157.882812 92.441406 158.027344 92.488281 158.089844 C 92.589844 158.226562 92.710938 158.324219 92.847656 158.375 C 93.019531 158.4375 93.253906 158.472656 93.550781 158.277344 C 94.066406 157.929688 94.894531 156.820312 95.753906 155.367188 C 97.664062 152.136719 99.898438 147.160156 100.007812 145.765625 C 100.070312 144.976562 99.773438 143.722656 99.242188 143.117188 Z M 98.714844 145.65625 C 98.613281 146.777344 97.011719 150.363281 95.433594 153.285156 C 94.792969 154.46875 94.167969 155.527344 93.613281 156.292969 C 93.476562 156.488281 93.339844 156.660156 93.230469 156.796875 C 92.453125 155.710938 91.847656 154.503906 90.960938 153.457031 C 90.085938 152.433594 88.25 150.769531 87.179688 149.03125 C 86.574219 148.046875 86.179688 147.0625 86.5625 146.160156 C 87.375 144.25 89.839844 144.363281 91.023438 146.011719 C 91.109375 146.136719 91.132812 146.347656 91.171875 146.554688 C 91.246094 146.925781 91.308594 147.296875 91.429688 147.566406 C 91.542969 147.824219 91.6875 148.011719 91.875 148.121094 L 91.875 148.171875 C 91.875 148.527344 92.15625 148.8125 92.515625 148.8125 C 92.871094 148.8125 93.15625 148.527344 93.15625 148.171875 C 93.15625 147.761719 93.378906 147.222656 93.699219 146.640625 C 94.238281 145.679688 95.078125 144.65625 95.988281 144.042969 C 96.789062 143.5 97.640625 143.226562 98.257812 143.941406 C 98.613281 144.351562 98.75 145.152344 98.714844 145.65625 Z M 105.34375 126.296875 C 104.714844 125.628906 103.605469 125.359375 102.300781 125.480469 C 100.734375 125.617188 98.847656 126.28125 97.359375 127.109375 C 97.679688 126.074219 97.703125 124.816406 97.605469 123.832031 C 97.199219 119.777344 92.328125 118.570312 89.703125 121.390625 C 88.347656 122.855469 87.632812 124.804688 87.253906 126.910156 C 86.710938 129.90625 86.84375 133.234375 86.597656 135.820312 C 86.5 136.855469 86.4375 137.90625 86.351562 138.925781 C 86.351562 139.027344 86.265625 139.222656 86.21875 139.433594 C 86.15625 139.667969 86.117188 139.886719 86.132812 140.074219 C 86.144531 140.34375 86.242188 140.554688 86.378906 140.691406 C 86.511719 140.824219 86.699219 140.910156 86.933594 140.910156 C 87.203125 140.910156 87.660156 140.691406 87.78125 140.628906 C 89.558594 139.554688 91.628906 138.878906 93.5625 138.113281 C 95.695312 137.261719 97.8125 136.214844 99.835938 135.105469 C 101.105469 134.40625 102.324219 133.664062 103.421875 132.714844 C 104.726562 131.582031 105.761719 130.289062 105.960938 128.488281 C 106.058594 127.476562 105.800781 126.789062 105.34375 126.296875 Z M 104.679688 128.328125 C 104.53125 129.769531 103.644531 130.792969 102.582031 131.71875 C 101.558594 132.617188 100.414062 133.296875 99.21875 133.960938 C 97.246094 135.046875 95.175781 136.066406 93.082031 136.90625 C 91.257812 137.632812 89.324219 138.285156 87.609375 139.234375 C 87.621094 139.160156 87.632812 139.085938 87.648438 139.050781 C 87.734375 138.027344 87.792969 136.980469 87.894531 135.957031 C 88.089844 133.8125 88.027344 131.164062 88.3125 128.625 C 88.582031 126.222656 89.148438 123.90625 90.652344 122.277344 C 92.527344 120.257812 96.027344 121.070312 96.324219 123.964844 C 96.421875 124.976562 96.410156 126.355469 95.902344 127.269531 C 95.71875 127.613281 95.3125 128.007812 95.042969 128.414062 C 94.757812 128.820312 94.585938 129.242188 94.585938 129.636719 C 94.585938 129.855469 94.695312 130.054688 94.867188 130.164062 C 94.917969 130.203125 94.96875 130.238281 95.015625 130.261719 C 95.335938 130.425781 95.71875 130.289062 95.878906 129.980469 C 96.136719 129.476562 96.804688 128.933594 97.652344 128.425781 C 99.035156 127.601562 100.882812 126.910156 102.398438 126.777344 C 103.238281 126.703125 103.988281 126.765625 104.394531 127.195312 C 104.640625 127.441406 104.726562 127.824219 104.679688 128.328125 Z M 104.679688 128.328125 " fill-opacity="1" fill-rule="nonzero"/></g><g clip-path="url(#62f8418215)"><path fill="#ffffff" d="M 37.046875 156.234375 C 37.046875 156.234375 36.183594 155.917969 35.761719 155.765625 C 33.855469 155.046875 31.839844 153.816406 30.25 152.542969 C 28.847656 151.421875 27.3125 149.820312 26.59375 148.132812 C 25.710938 146.078125 24.40625 141.808594 24.40625 139.652344 C 24.40625 139.328125 24.1875 139.042969 23.882812 138.957031 C 23.828125 138.871094 23.742188 138.78125 23.644531 138.726562 C 23.292969 138.519531 22.847656 138.640625 22.640625 138.988281 C 22.371094 139.457031 22.269531 140.046875 22.269531 140.675781 C 22.269531 141.417969 22.433594 142.234375 22.46875 142.832031 C 22.695312 146.054688 20.179688 149.003906 18.003906 151.085938 C 15.792969 153.195312 12.648438 155.179688 9.730469 156.082031 C 9.164062 156.257812 8.574219 156.464844 8.074219 156.769531 C 8.007812 156.800781 7.878906 156.867188 7.878906 156.867188 C 7.59375 156.996094 7.421875 157.289062 7.453125 157.59375 C 7.488281 157.910156 7.703125 158.160156 8.007812 158.238281 C 8.007812 158.238281 9.207031 158.53125 9.804688 158.652344 C 12.222656 159.128906 14.398438 160.132812 15.980469 162.070312 C 18.308594 164.945312 19.234375 168.046875 20.269531 171.53125 C 20.628906 172.761719 20.757812 174.058594 20.921875 175.320312 L 20.921875 176.09375 C 20.921875 176.484375 21.238281 176.8125 21.628906 176.820312 C 22.019531 176.832031 22.359375 176.527344 22.378906 176.136719 C 22.378906 176.136719 22.414062 175.582031 22.378906 175.253906 C 22.378906 174.570312 22.402344 173.894531 22.445312 173.21875 C 22.675781 169.59375 24.285156 166.292969 26.625 163.519531 C 28.867188 160.851562 32.144531 158.304688 35.671875 157.855469 C 36.097656 157.800781 36.9375 157.648438 36.9375 157.648438 C 37.261719 157.585938 37.503906 157.324219 37.535156 156.984375 C 37.546875 156.660156 37.351562 156.34375 37.046875 156.234375 Z M 25.492188 162.570312 C 23.566406 164.855469 22.117188 167.460938 21.410156 170.289062 C 20.410156 166.949219 19.375 163.941406 17.101562 161.144531 C 15.421875 159.074219 13.148438 157.921875 10.613281 157.335938 C 13.59375 156.320312 16.761719 154.296875 19.015625 152.140625 C 21.074219 150.179688 23.292969 147.480469 23.828125 144.519531 C 24.273438 146.121094 24.808594 147.667969 25.242188 148.699219 C 26.058594 150.59375 27.746094 152.414062 29.335938 153.675781 C 30.730469 154.785156 32.429688 155.875 34.128906 156.648438 C 30.761719 157.53125 27.671875 159.980469 25.492188 162.570312 Z M 25.492188 162.570312 " fill-opacity="1" fill-rule="nonzero"/></g></svg>