<svg xmlns="http://www.w3.org/2000/svg" xmlns:xlink="http://www.w3.org/1999/xlink" width="300" zoomAndPan="magnify" viewBox="0 0 224.87999 225" height="300" preserveAspectRatio="xMidYMid meet" version="1.0"><defs><clipPath id="6f894b8b85"><path d="M 32.289062 91.214844 L 147.730469 91.214844 L 147.730469 223.894531 L 32.289062 223.894531 Z M 32.289062 91.214844 " clip-rule="nonzero"/></clipPath><clipPath id="593e11f6f5"><path d="M 141 111 L 186 111 L 186 143 L 141 143 Z M 141 111 " clip-rule="nonzero"/></clipPath><clipPath id="12f07bfc68"><path d="M 233.980469 164.160156 L 170.375 227.765625 L 112.601562 169.988281 L 176.207031 106.382812 Z M 233.980469 164.160156 " clip-rule="nonzero"/></clipPath><clipPath id="c10d3f7500"><path d="M 233.980469 164.160156 L 170.375 227.765625 L 112.601562 169.988281 L 176.207031 106.382812 Z M 233.980469 164.160156 " clip-rule="nonzero"/></clipPath><clipPath id="248e21dbd8"><path d="M 149 164 L 201 164 L 201 172 L 149 172 Z M 149 164 " clip-rule="nonzero"/></clipPath><clipPath id="7a86e0bb90"><path d="M 233.980469 164.160156 L 170.375 227.765625 L 112.601562 169.988281 L 176.207031 106.382812 Z M 233.980469 164.160156 " clip-rule="nonzero"/></clipPath><clipPath id="b4cef7677e"><path d="M 233.980469 164.160156 L 170.375 227.765625 L 112.601562 169.988281 L 176.207031 106.382812 Z M 233.980469 164.160156 " clip-rule="nonzero"/></clipPath><clipPath id="5ce8ff7eef"><path d="M 133 189 L 181 189 L 181 220 L 133 220 Z M 133 189 " clip-rule="nonzero"/></clipPath><clipPath id="adb1494d10"><path d="M 233.980469 164.160156 L 170.375 227.765625 L 112.601562 169.988281 L 176.207031 106.382812 Z M 233.980469 164.160156 " clip-rule="nonzero"/></clipPath><clipPath id="1824111ce9"><path d="M 233.980469 164.160156 L 170.375 227.765625 L 112.601562 169.988281 L 176.207031 106.382812 Z M 233.980469 164.160156 " clip-rule="nonzero"/></clipPath><clipPath id="f819c125af"><path d="M 195 165 L 197 165 L 197 166 L 195 166 Z M 195 165 " clip-rule="nonzero"/></clipPath><clipPath id="7be4b3ce7c"><path d="M 233.980469 164.160156 L 170.375 227.765625 L 112.601562 169.988281 L 176.207031 106.382812 Z M 233.980469 164.160156 " clip-rule="nonzero"/></clipPath><clipPath id="2c8df74d86"><path d="M 233.980469 164.160156 L 170.375 227.765625 L 112.601562 169.988281 L 176.207031 106.382812 Z M 233.980469 164.160156 " clip-rule="nonzero"/></clipPath><clipPath id="e7a58fda64"><path d="M 149 194 L 150 194 L 150 195 L 149 195 Z M 149 194 " clip-rule="nonzero"/></clipPath><clipPath id="a26e076675"><path d="M 233.980469 164.160156 L 170.375 227.765625 L 112.601562 169.988281 L 176.207031 106.382812 Z M 233.980469 164.160156 " clip-rule="nonzero"/></clipPath><clipPath id="ddce39b75c"><path d="M 233.980469 164.160156 L 170.375 227.765625 L 112.601562 169.988281 L 176.207031 106.382812 Z M 233.980469 164.160156 " clip-rule="nonzero"/></clipPath><clipPath id="72e7d4ce86"><path d="M 147 193 L 149 193 L 149 194 L 147 194 Z M 147 193 " clip-rule="nonzero"/></clipPath><clipPath id="ba0e39ca71"><path d="M 233.980469 164.160156 L 170.375 227.765625 L 112.601562 169.988281 L 176.207031 106.382812 Z M 233.980469 164.160156 " clip-rule="nonzero"/></clipPath><clipPath id="c79f29437a"><path d="M 233.980469 164.160156 L 170.375 227.765625 L 112.601562 169.988281 L 176.207031 106.382812 Z M 233.980469 164.160156 " clip-rule="nonzero"/></clipPath><clipPath id="9eea065f58"><path d="M 95.296875 113 L 140.273438 113 L 140.273438 152.230469 L 95.296875 152.230469 Z M 95.296875 113 " clip-rule="nonzero"/></clipPath><clipPath id="e11fd06fd2"><path d="M 45.84375 135.832031 L 75.828125 135.832031 L 75.828125 174.058594 L 45.84375 174.058594 Z M 45.84375 135.832031 " clip-rule="nonzero"/></clipPath></defs><g clip-path="url(#6f894b8b85)"><path fill="#ed9819" d="M 90.398438 208.847656 C 90.375 208.683594 90.464844 208.574219 90.5625 208.457031 C 90.863281 208.101562 91.175781 207.757812 91.441406 207.378906 C 91.644531 207.082031 91.816406 207.113281 92.097656 207.277344 C 95.4375 209.226562 98.777344 211.179688 102.132812 213.105469 C 103.347656 213.804688 104.609375 214.417969 105.953125 214.851562 C 107.886719 215.476562 109.527344 215.015625 110.984375 213.644531 C 112.425781 212.292969 113.441406 210.671875 114.289062 208.898438 C 118.5625 199.988281 122.574219 190.957031 126.558594 181.917969 C 128.414062 177.710938 130.214844 173.480469 131.914062 169.210938 C 134.800781 161.953125 137.503906 154.636719 139.496094 147.074219 C 140.214844 144.355469 140.621094 141.578125 141.003906 138.796875 C 141.363281 136.222656 141.597656 133.632812 141.691406 131.035156 C 141.777344 128.539062 141.761719 126.042969 141.566406 123.550781 C 141.320312 120.398438 140.828125 117.292969 139.945312 114.257812 C 139.03125 111.125 137.707031 108.199219 135.847656 105.492188 C 134.179688 103.066406 131.835938 101.808594 129.074219 101.179688 C 125.824219 100.4375 122.632812 100.796875 119.496094 101.828125 C 115.242188 103.226562 111.636719 105.691406 108.402344 108.734375 C 104.328125 112.570312 101.128906 117.085938 98.316406 121.886719 C 94.710938 128.046875 91.675781 134.484375 88.902344 141.050781 C 87.632812 144.0625 86.375 147.078125 85.554688 150.253906 C 85.488281 150.511719 85.398438 150.769531 85.285156 151.011719 C 84.917969 151.777344 84.09375 151.875 83.53125 151.242188 C 83.109375 150.769531 82.988281 150.1875 82.894531 149.597656 C 82.84375 149.289062 82.734375 149.03125 82.5625 148.777344 C 79.4375 144.128906 75.53125 140.257812 70.941406 137.070312 C 67.777344 134.875 64.355469 133.203125 60.625 132.199219 C 58.09375 131.519531 55.523438 131.179688 52.910156 131.328125 C 49.453125 131.527344 46.238281 132.511719 43.4375 134.601562 C 42.011719 135.667969 41.0625 137.160156 40.214844 138.695312 C 38.789062 141.277344 37.972656 144.058594 37.65625 146.984375 C 36.773438 155.125 38.703125 162.636719 42.785156 169.648438 C 45.328125 174.019531 48.664062 177.738281 52.398438 181.113281 C 52.714844 181.398438 52.804688 181.585938 52.542969 181.976562 C 51.964844 182.832031 51.449219 183.726562 50.917969 184.609375 C 50.777344 184.84375 50.6875 184.9375 50.425781 184.71875 C 45.0625 180.230469 40.386719 175.15625 37.082031 168.925781 C 34.992188 164.980469 33.585938 160.792969 32.890625 156.371094 C 32.488281 153.839844 32.289062 151.296875 32.375 148.738281 C 32.53125 143.890625 33.421875 139.207031 35.683594 134.871094 C 38.417969 129.632812 42.605469 126.035156 48.136719 123.976562 C 51.777344 122.621094 55.550781 122.109375 59.410156 122.363281 C 68.535156 122.964844 75.519531 127.160156 80.28125 134.992188 C 82.058594 137.917969 83.207031 141.097656 84.042969 144.398438 C 84.089844 144.582031 84.109375 144.78125 84.25 144.941406 C 84.375 144.90625 84.367188 144.792969 84.386719 144.703125 C 85.636719 138.601562 87.152344 132.566406 89.019531 126.625 C 90.632812 121.492188 92.507812 116.464844 95.066406 111.710938 C 97.804688 106.613281 101.238281 102.078125 105.84375 98.503906 C 110.21875 95.109375 115.113281 92.859375 120.589844 91.964844 C 124.734375 91.285156 128.851562 91.449219 132.84375 92.835938 C 138.363281 94.753906 142.257812 98.476562 144.683594 103.761719 C 146.003906 106.636719 146.722656 109.675781 147.125 112.804688 C 147.597656 116.496094 147.597656 120.203125 147.355469 123.902344 C 146.914062 130.65625 145.707031 137.292969 144.203125 143.878906 C 142.46875 151.480469 140.304688 158.960938 137.9375 166.386719 C 136.117188 172.085938 134.160156 177.738281 132.082031 183.351562 C 130.085938 188.738281 128.015625 194.097656 125.894531 199.4375 C 123.886719 204.484375 121.9375 209.554688 119.75 214.527344 C 118.855469 216.566406 117.914062 218.585938 116.675781 220.445312 C 116.285156 221.03125 115.847656 221.582031 115.355469 222.085938 C 113.628906 223.851562 111.601562 224.078125 109.378906 223.238281 C 108.875 223.046875 108.375 222.839844 107.902344 222.589844 C 104.554688 220.8125 101.179688 219.089844 98.082031 216.871094 C 95.175781 214.796875 92.203125 212.8125 89.25 210.808594 C 88.914062 210.578125 88.890625 210.433594 89.164062 210.148438 C 89.476562 209.828125 89.738281 209.457031 90.027344 209.113281 C 90.128906 208.992188 90.207031 208.832031 90.40625 208.839844 C 90.714844 209.171875 91.125 209.363281 91.492188 209.609375 C 96.109375 212.640625 100.683594 215.742188 105.359375 218.683594 C 105.667969 218.878906 105.980469 219.035156 106.347656 219.074219 C 107.585938 219.207031 109.136719 218.246094 109.652344 217.011719 C 109.511719 216.972656 109.394531 217.042969 109.265625 217.074219 C 108.445312 217.285156 107.617188 217.335938 106.777344 217.214844 C 105.171875 216.984375 103.703125 216.367188 102.289062 215.613281 C 98.453125 213.570312 94.757812 211.289062 90.992188 209.121094 C 90.804688 209.015625 90.644531 208.839844 90.398438 208.847656 Z M 125.777344 98.652344 C 125.644531 98.589844 125.609375 98.566406 125.570312 98.554688 C 125.46875 98.527344 125.367188 98.5 125.269531 98.476562 C 122.335938 97.816406 119.394531 97.84375 116.464844 98.441406 C 110.804688 99.59375 106.140625 102.480469 102.253906 106.691406 C 98.894531 110.328125 96.535156 114.589844 94.632812 119.121094 C 92.707031 123.710938 91.234375 128.453125 89.855469 133.230469 C 89.824219 133.339844 89.726562 133.449219 89.847656 133.59375 C 89.925781 133.433594 90 133.289062 90.070312 133.140625 C 90.75 131.730469 91.414062 130.3125 92.113281 128.90625 C 94.40625 124.304688 96.859375 119.792969 99.808594 115.566406 C 102.726562 111.390625 106.03125 107.574219 110.113281 104.476562 C 113.558594 101.859375 117.328125 99.925781 121.597656 99.054688 C 122.945312 98.785156 124.304688 98.636719 125.777344 98.652344 Z M 144.867188 126.210938 C 144.914062 126.210938 144.960938 126.210938 145.003906 126.210938 C 145.167969 124.871094 145.257812 123.519531 145.300781 122.171875 C 145.402344 119.046875 145.390625 115.925781 144.964844 112.820312 C 144.574219 109.964844 143.921875 107.183594 142.703125 104.5625 C 140.621094 100.085938 137.347656 96.839844 132.699219 95.066406 C 129.246094 93.746094 125.660156 93.496094 122.027344 93.925781 C 117.796875 94.425781 113.886719 95.867188 110.25 98.066406 C 110.167969 98.113281 110.027344 98.125 110.039062 98.277344 C 110.054688 98.277344 110.070312 98.289062 110.082031 98.28125 C 110.152344 98.257812 110.222656 98.234375 110.289062 98.203125 C 114.367188 96.347656 118.632812 95.550781 123.105469 95.960938 C 126.285156 96.253906 129.214844 97.277344 131.925781 98.957031 C 133.230469 99.765625 134.316406 100.847656 135.53125 101.761719 C 138.496094 104 140.613281 106.871094 142.089844 110.242188 C 143.957031 114.507812 144.703125 119.003906 144.863281 123.621094 C 144.894531 124.484375 144.867188 125.347656 144.867188 126.210938 Z M 35.480469 141.832031 C 35.546875 141.6875 35.617188 141.539062 35.679688 141.390625 C 36.070312 140.488281 36.488281 139.597656 36.960938 138.734375 C 38.464844 135.984375 40.71875 133.910156 43.078125 131.945312 C 46.984375 128.691406 51.59375 127.277344 56.59375 127.023438 C 60.710938 126.8125 64.644531 127.613281 68.382812 129.351562 C 72.375 131.203125 75.75 133.878906 78.691406 137.121094 C 78.863281 137.308594 79.035156 137.496094 79.210938 137.6875 C 79.242188 137.554688 79.210938 137.472656 79.171875 137.398438 C 76.714844 132.679688 73.175781 129.042969 68.355469 126.742188 C 64.222656 124.769531 59.832031 124.199219 55.300781 124.570312 C 51.910156 124.84375 48.699219 125.761719 45.726562 127.433594 C 40.066406 130.617188 36.90625 135.601562 35.480469 141.832031 Z M 108.933594 220.703125 C 109.589844 221.054688 110.21875 221.292969 110.871094 221.457031 C 111.980469 221.746094 112.929688 221.46875 113.742188 220.664062 C 114.375 220.039062 114.882812 219.320312 115.335938 218.5625 C 116.683594 216.316406 117.722656 213.917969 118.730469 211.507812 C 120.726562 206.730469 122.617188 201.910156 124.519531 197.097656 C 126.316406 192.5625 128.058594 188.007812 129.78125 183.445312 C 129.980469 182.917969 130.15625 182.386719 130.34375 181.859375 C 130.242188 181.910156 130.199219 181.984375 130.164062 182.0625 C 128.3125 186.335938 126.410156 190.589844 124.414062 194.796875 C 122.164062 199.53125 119.890625 204.253906 117.210938 208.761719 C 115.925781 210.929688 114.570312 213.054688 113.367188 215.277344 C 112.25 217.335938 111.03125 219.351562 108.933594 220.703125 Z M 56.304688 129.214844 C 65.476562 130.226562 72.753906 134.851562 79.167969 141.148438 C 79.152344 141.058594 79.121094 140.996094 79.078125 140.941406 C 76.355469 137.375 73.136719 134.355469 69.199219 132.167969 C 65.1875 129.9375 60.898438 128.882812 56.304688 129.214844 Z M 56.304688 129.214844 " fill-opacity="1" fill-rule="nonzero"/></g><path fill="#ed9819" d="M 72.367188 187.332031 C 74.15625 187.375 75.742188 187.933594 77.222656 188.78125 C 78.773438 189.667969 80.425781 190.152344 82.199219 190.300781 C 83.40625 190.402344 84.613281 190.507812 85.804688 190.714844 C 88.1875 191.128906 90.386719 192 92.304688 193.480469 C 94.164062 194.921875 95.15625 196.777344 94.644531 199.195312 C 94.210938 201.230469 93.042969 202.765625 91.265625 203.847656 C 89.84375 204.714844 88.257812 205.058594 86.648438 205.339844 C 85.21875 205.589844 83.789062 205.828125 82.363281 206.097656 C 81.277344 206.304688 80.40625 206.867188 79.75 207.769531 C 78.929688 208.894531 78.46875 210.199219 77.902344 211.449219 C 77.035156 213.375 75.972656 215.175781 74.257812 216.480469 C 72.519531 217.8125 70.613281 218.441406 68.484375 217.46875 C 66.96875 216.777344 66.019531 215.519531 65.394531 214.003906 C 64.71875 212.375 64.707031 210.71875 65.265625 209.050781 C 65.425781 208.570312 65.582031 208.082031 65.792969 207.621094 C 66.609375 205.839844 66.710938 204 66.335938 202.097656 C 65.972656 200.265625 65.453125 198.445312 65.457031 196.570312 C 65.460938 193.167969 66.675781 190.292969 69.460938 188.210938 C 70.324219 187.5625 71.351562 187.347656 72.367188 187.332031 Z M 72.367188 187.332031 " fill-opacity="1" fill-rule="nonzero"/><path fill="#ed9819" d="M 54.140625 187.285156 C 54.144531 186.671875 54.222656 186.066406 54.394531 185.472656 C 55.078125 183.109375 57.234375 182.148438 59.441406 183.230469 C 60.742188 183.867188 61.71875 184.859375 62.492188 186.0625 C 63.742188 188.019531 64.398438 190.140625 64.144531 192.484375 C 64.082031 193.054688 63.910156 193.59375 63.664062 194.113281 C 62.871094 195.785156 61.164062 196.472656 59.421875 195.839844 C 58.1875 195.386719 57.234375 194.578125 56.414062 193.578125 C 55.015625 191.867188 54.125 189.414062 54.140625 187.285156 Z M 54.140625 187.285156 " fill-opacity="1" fill-rule="nonzero"/><path fill="#ed9819" d="M 69.371094 185.777344 C 67.480469 185.671875 65.578125 184.644531 63.96875 183.015625 C 62.886719 181.921875 62.085938 180.65625 61.859375 179.09375 C 61.539062 176.917969 62.875 175.246094 65.078125 175.128906 C 67.296875 175.007812 69.152344 175.917969 70.789062 177.324219 C 71.964844 178.335938 72.875 179.542969 73.324219 181.054688 C 73.332031 181.085938 73.34375 181.113281 73.351562 181.140625 C 74.105469 183.769531 72.546875 185.816406 69.371094 185.777344 Z M 69.371094 185.777344 " fill-opacity="1" fill-rule="nonzero"/><path fill="#ed9819" d="M 83.996094 188.660156 C 80.847656 188.632812 77.367188 186.167969 76.464844 183.324219 C 75.820312 181.28125 76.894531 179.484375 79 179.121094 C 80.800781 178.8125 82.4375 179.332031 83.976562 180.210938 C 85.320312 180.980469 86.433594 182.007812 87.175781 183.394531 C 88.683594 186.207031 87.1875 188.683594 83.996094 188.660156 Z M 83.996094 188.660156 " fill-opacity="1" fill-rule="nonzero"/><path fill="#ed9819" d="M 62.921875 205.234375 C 62.902344 206.179688 62.769531 207.121094 62.289062 207.976562 C 61.757812 208.921875 60.898438 209.304688 59.898438 208.890625 C 56.601562 207.527344 54.460938 205.164062 53.867188 201.574219 C 53.660156 200.3125 53.882812 199.09375 54.667969 198.039062 C 55.734375 196.605469 57.398438 196.289062 58.914062 197.234375 C 59.996094 197.910156 60.746094 198.890625 61.363281 199.980469 C 62.285156 201.605469 62.878906 203.324219 62.921875 205.234375 Z M 62.921875 205.234375 " fill-opacity="1" fill-rule="nonzero"/><g clip-path="url(#593e11f6f5)"><g clip-path="url(#12f07bfc68)"><g clip-path="url(#c10d3f7500)"><path fill="#ed9819" d="M 180.398438 113.816406 C 180.511719 114.0625 180.625 114.21875 180.9375 114.066406 C 181.261719 113.90625 181.414062 114.03125 181.425781 114.421875 C 181.429688 114.589844 181.449219 114.757812 181.449219 114.929688 C 181.445312 115.085938 181.421875 115.246094 181.402344 115.460938 C 181.785156 115.578125 182.195312 115.507812 182.605469 115.371094 C 182.652344 115.355469 182.683594 115.285156 182.726562 115.277344 C 183.25 115.179688 183.773438 115.050781 184.300781 115.015625 C 184.757812 114.980469 184.953125 115.261719 184.929688 115.730469 C 184.921875 115.882812 184.976562 116.035156 185.015625 116.253906 C 184.921875 116.179688 184.871094 116.121094 184.804688 116.09375 C 184.753906 116.070312 184.671875 116.0625 184.632812 116.089844 C 184.59375 116.121094 184.570312 116.210938 184.585938 116.257812 C 184.738281 116.722656 184.742188 116.722656 184.664062 117.105469 C 184.738281 117.058594 184.808594 117 184.890625 116.972656 C 185.019531 116.925781 185.160156 116.898438 185.292969 116.863281 C 185.261719 116.988281 185.265625 117.152344 185.191406 117.230469 C 184.480469 117.980469 183.757812 118.722656 183.027344 119.449219 C 182.496094 119.972656 181.949219 120.480469 181.398438 120.980469 C 181.289062 121.074219 181.125 121.125 180.976562 121.152344 C 180.671875 121.207031 180.519531 121.097656 180.6875 120.710938 C 180.527344 120.726562 180.417969 120.738281 180.242188 120.753906 C 180.390625 121.023438 180.5 121.222656 180.617188 121.433594 C 180.34375 121.707031 180.015625 122.070312 179.648438 122.386719 C 179.519531 122.492188 179.292969 122.480469 179.113281 122.523438 C 179.078125 122.496094 179.046875 122.46875 179.015625 122.441406 C 178.976562 122.636719 178.941406 122.832031 178.894531 123.023438 C 178.882812 123.082031 178.839844 123.15625 178.789062 123.179688 C 178.457031 123.320312 178.175781 123.523438 177.9375 123.796875 C 177.800781 123.953125 177.644531 124.136719 177.460938 124.195312 C 176.941406 124.363281 176.683594 124.847656 176.25 125.117188 C 175.601562 125.523438 174.96875 125.953125 174.324219 126.367188 C 174.105469 126.511719 173.894531 126.664062 173.671875 126.796875 C 173.011719 127.1875 172.347656 127.566406 171.6875 127.957031 C 171.304688 128.183594 170.929688 128.417969 170.546875 128.640625 C 170.4375 128.703125 170.300781 128.726562 170.1875 128.789062 C 169.976562 128.898438 169.773438 129.019531 169.570312 129.144531 C 169.480469 129.195312 169.402344 129.273438 169.308594 129.316406 C 168.652344 129.628906 167.988281 129.929688 167.339844 130.253906 C 166.945312 130.449219 166.574219 130.691406 166.183594 130.898438 C 165.367188 131.320312 164.542969 131.730469 163.726562 132.15625 C 162.6875 132.699219 161.65625 133.253906 160.613281 133.792969 C 160.09375 134.0625 159.554688 134.296875 159.035156 134.570312 C 158.652344 134.773438 158.304688 135.046875 157.914062 135.238281 C 157.453125 135.464844 156.964844 135.636719 156.433594 135.855469 C 156.351562 135.945312 156.242188 136.148438 156.074219 136.246094 C 155.378906 136.648438 154.652344 137 153.960938 137.402344 C 153.121094 137.890625 152.34375 138.496094 151.46875 138.902344 C 150.375 139.417969 149.476562 140.257812 148.34375 140.699219 C 148.152344 140.773438 147.964844 140.863281 147.796875 140.933594 C 147.691406 140.847656 147.554688 140.679688 147.492188 140.703125 C 147.296875 140.777344 146.980469 140.917969 146.972656 141.042969 C 146.957031 141.628906 146.523438 141.5625 146.171875 141.644531 C 145.988281 141.683594 145.8125 141.75 145.636719 141.804688 C 145.171875 141.953125 144.703125 142.097656 144.238281 142.253906 C 143.832031 142.390625 143.472656 142.695312 143 142.613281 C 142.746094 142.570312 142.480469 142.585938 142.234375 142.519531 C 142.117188 142.492188 141.964844 142.347656 141.949219 142.234375 C 141.933594 142.136719 142.054688 141.957031 142.160156 141.90625 C 142.46875 141.765625 142.503906 141.617188 142.320312 141.332031 C 142.160156 141.085938 142.34375 140.699219 142.652344 140.574219 C 143 140.429688 143.144531 140.160156 143.25 139.8125 C 143.160156 139.804688 143.128906 139.792969 143.109375 139.804688 C 142.980469 139.84375 142.855469 139.890625 142.726562 139.933594 C 142.769531 139.804688 142.777344 139.644531 142.859375 139.546875 C 143.019531 139.34375 143.21875 139.171875 143.464844 138.925781 C 143.515625 139.5 143.871094 139.546875 144.28125 139.574219 C 144.253906 139.230469 144.421875 139.09375 144.742188 138.996094 C 145.101562 138.882812 145.417969 138.636719 145.75 138.441406 C 145.796875 138.414062 145.816406 138.335938 145.875 138.230469 C 145.382812 138.382812 145.105469 138.703125 144.695312 138.550781 C 144.652344 138.535156 144.511719 138.65625 144.5 138.730469 C 144.4375 139.105469 144.097656 139 143.882812 139.097656 C 143.875 139.101562 143.753906 138.941406 143.773438 138.886719 C 143.871094 138.558594 144.015625 138.265625 144.300781 138.316406 C 144.609375 138.070312 144.84375 137.910156 145.054688 137.722656 C 145.207031 137.585938 145.316406 137.398438 145.46875 137.265625 C 146.496094 136.398438 147.53125 135.539062 148.5625 134.675781 C 148.96875 134.332031 149.363281 133.980469 149.769531 133.636719 C 150.519531 133.003906 151.257812 132.367188 152.023438 131.753906 C 152.574219 131.316406 153.15625 130.921875 153.722656 130.507812 C 154.074219 130.253906 154.425781 130.003906 154.773438 129.75 C 155.488281 129.226562 156.191406 128.691406 156.921875 128.183594 C 157.613281 127.703125 158.332031 127.257812 159.035156 126.792969 C 159.535156 126.460938 160.023438 126.121094 160.523438 125.800781 C 160.730469 125.667969 160.960938 125.578125 161.179688 125.46875 C 161.222656 125.445312 161.292969 125.445312 161.320312 125.410156 C 161.722656 124.828125 162.378906 124.601562 162.941406 124.238281 C 163.609375 123.808594 164.269531 123.359375 164.945312 122.941406 C 165.742188 122.441406 166.546875 121.957031 167.355469 121.480469 C 167.5 121.394531 167.6875 121.382812 167.820312 121.289062 C 168.027344 121.132812 168.179688 120.902344 168.398438 120.765625 C 168.734375 120.550781 169.117188 120.402344 169.457031 120.195312 C 169.855469 119.949219 170.234375 119.667969 170.621094 119.402344 C 171.0625 119.097656 171.515625 118.808594 171.945312 118.488281 C 172.785156 117.851562 173.609375 117.195312 174.445312 116.554688 C 174.589844 116.445312 174.761719 116.378906 174.910156 116.277344 C 175.117188 116.128906 175.316406 115.964844 175.519531 115.808594 C 175.808594 115.59375 176.097656 115.367188 176.394531 115.160156 C 176.785156 114.890625 177.175781 114.617188 177.582031 114.371094 C 177.886719 114.1875 178.210938 114.039062 178.527344 113.878906 C 178.539062 113.871094 178.5625 113.875 178.566406 113.867188 C 178.78125 113.332031 179.324219 113.25 179.746094 112.988281 C 180.089844 112.773438 180.355469 112.433594 180.695312 112.207031 C 180.898438 112.066406 181.171875 112.003906 181.425781 111.964844 C 181.65625 111.925781 181.667969 112.097656 181.613281 112.277344 C 181.546875 112.511719 181.492188 112.746094 181.421875 112.976562 C 181.398438 113.046875 181.347656 113.117188 181.289062 113.160156 C 181 113.382812 180.703125 113.59375 180.398438 113.816406 Z M 171.527344 120.207031 C 171.371094 120.28125 171.222656 120.332031 171.097656 120.417969 C 170.734375 120.660156 170.378906 120.921875 170.019531 121.175781 C 169.9375 121.234375 169.84375 121.289062 169.773438 121.363281 C 169.539062 121.597656 169.359375 121.90625 168.9375 121.800781 C 168.871094 121.785156 168.753906 121.890625 168.6875 121.964844 C 168.515625 122.152344 168.449219 122.277344 168.792969 122.398438 C 169.136719 122.519531 169.332031 122.351562 169.554688 122.195312 C 170.101562 121.804688 170.640625 121.40625 171.1875 121.011719 C 171.214844 120.988281 171.261719 120.984375 171.296875 120.972656 C 171.820312 120.792969 171.824219 120.78125 171.523438 120.210938 Z M 168.410156 122.296875 C 168.089844 122.429688 167.816406 122.53125 167.550781 122.65625 C 167.507812 122.679688 167.476562 122.824219 167.5 122.882812 C 167.578125 123.066406 168.121094 123.15625 168.378906 123.054688 C 168.707031 122.925781 168.519531 122.742188 168.449219 122.5625 C 168.425781 122.503906 168.429688 122.4375 168.40625 122.296875 Z M 171.847656 119.945312 C 171.8125 119.964844 171.773438 119.984375 171.738281 120.003906 C 171.777344 120.140625 171.777344 120.3125 171.867188 120.394531 C 171.925781 120.453125 172.140625 120.421875 172.226562 120.351562 C 172.4375 120.191406 172.613281 119.984375 172.867188 119.726562 C 172.644531 119.695312 172.457031 119.628906 172.292969 119.667969 C 172.214844 119.6875 172.183594 119.90625 172.125 120.054688 C 172.054688 120.027344 171.953125 119.984375 171.847656 119.941406 Z M 144.941406 139.828125 C 144.917969 139.792969 144.894531 139.757812 144.871094 139.71875 C 144.558594 139.914062 144.242188 140.109375 143.890625 140.328125 C 144.335938 140.476562 144.734375 140.265625 144.941406 139.828125 Z M 180.085938 113.878906 C 179.890625 114.039062 179.742188 114.140625 179.613281 114.265625 C 179.558594 114.316406 179.542969 114.40625 179.511719 114.480469 C 179.597656 114.515625 179.726562 114.609375 179.773438 114.578125 C 179.980469 114.441406 180.167969 114.273438 180.382812 114.097656 C 180.25 114 180.152344 113.925781 180.085938 113.878906 Z M 146.347656 137.945312 C 146.527344 137.691406 146.660156 137.496094 146.804688 137.292969 C 146.269531 137.214844 146.140625 137.367188 146.347656 137.945312 Z M 178.019531 122.308594 C 177.984375 122.386719 177.949219 122.464844 177.917969 122.542969 C 178.0625 122.621094 178.210938 122.695312 178.359375 122.773438 C 178.410156 122.667969 178.464844 122.5625 178.515625 122.460938 C 178.351562 122.40625 178.183594 122.359375 178.015625 122.304688 Z M 172.132812 122.183594 C 172.5625 122.378906 172.78125 122.265625 172.96875 121.710938 C 172.652344 121.890625 172.421875 122.019531 172.132812 122.183594 Z M 169.539062 124.121094 C 169.730469 124.066406 169.902344 124.03125 170.0625 123.972656 C 170.121094 123.949219 170.167969 123.875 170.199219 123.8125 C 170.207031 123.792969 170.152344 123.722656 170.113281 123.707031 C 169.910156 123.621094 169.554688 123.878906 169.535156 124.121094 Z M 175.59375 120.132812 C 175.566406 120.085938 175.539062 120.042969 175.511719 119.996094 C 175.242188 119.980469 174.96875 119.953125 174.996094 120.515625 C 175.242188 120.359375 175.417969 120.246094 175.59375 120.132812 Z M 167.230469 123.246094 C 167.210938 123.167969 167.195312 123.09375 167.175781 123.015625 C 167.054688 123.066406 166.902344 123.089844 166.828125 123.179688 C 166.773438 123.25 166.78125 123.421875 166.832031 123.503906 C 166.863281 123.554688 167.050781 123.558594 167.128906 123.511719 C 167.191406 123.476562 167.199219 123.335938 167.230469 123.246094 Z M 173.507812 119.40625 C 173.253906 119.390625 173.039062 119.378906 172.820312 119.367188 L 172.820312 119.546875 C 173.03125 119.546875 173.242188 119.542969 173.453125 119.542969 C 173.457031 119.542969 173.460938 119.519531 173.507812 119.40625 Z M 170.9375 122.863281 C 171.285156 123.140625 171.53125 123.109375 171.734375 122.792969 C 171.476562 122.816406 171.230469 122.835938 170.9375 122.863281 Z M 142.855469 141.101562 C 143.089844 140.90625 143.296875 140.730469 143.546875 140.519531 C 143.046875 140.488281 142.886719 140.714844 142.855469 141.101562 Z M 142.855469 141.101562 " fill-opacity="1" fill-rule="nonzero"/></g></g></g><g clip-path="url(#248e21dbd8)"><g clip-path="url(#7a86e0bb90)"><g clip-path="url(#b4cef7677e)"><path fill="#ed9819" d="M 163.21875 164.8125 C 163.175781 164.179688 163.550781 164.308594 163.898438 164.3125 C 164.785156 164.324219 165.671875 164.28125 166.554688 164.300781 C 167.195312 164.316406 167.832031 164.394531 168.46875 164.457031 C 169.269531 164.535156 170.054688 164.6875 170.871094 164.625 C 171.273438 164.59375 171.695312 164.710938 172.09375 164.816406 C 172.347656 164.882812 172.617188 165.019531 172.566406 165.421875 C 172.480469 165.394531 172.417969 165.363281 172.351562 165.355469 C 172.269531 165.34375 172.183594 165.347656 172.101562 165.363281 C 172.085938 165.367188 172.066406 165.480469 172.082031 165.496094 C 172.152344 165.546875 172.234375 165.597656 172.3125 165.609375 C 172.582031 165.652344 172.851562 165.683594 173.125 165.707031 C 173.183594 165.714844 173.28125 165.703125 173.296875 165.667969 C 173.324219 165.609375 173.320312 165.519531 173.292969 165.460938 C 173.230469 165.332031 173.148438 165.21875 173.074219 165.09375 C 172.777344 165.234375 172.671875 165.160156 172.671875 164.761719 C 173.082031 164.707031 173.277344 164.980469 173.457031 165.269531 C 173.535156 165.398438 173.609375 165.527344 173.6875 165.652344 C 173.832031 165.558594 173.976562 165.46875 174.136719 165.363281 C 173.902344 165.207031 173.71875 165.085938 173.46875 164.917969 C 173.785156 164.792969 173.996094 164.621094 174.257812 164.824219 C 174.292969 164.851562 174.355469 164.855469 174.402344 164.847656 C 174.734375 164.816406 175.066406 164.777344 175.402344 164.742188 C 175.824219 164.699219 176.253906 164.601562 176.671875 164.636719 C 177.09375 164.671875 177.578125 164.496094 177.925781 164.945312 C 178.011719 165.058594 178.335938 165.113281 178.460938 165.042969 C 178.914062 164.785156 179.363281 164.789062 179.867188 164.808594 C 180.269531 164.824219 180.679688 164.6875 181.082031 164.871094 C 181.820312 164.503906 182.617188 164.792969 183.382812 164.667969 C 183.753906 164.609375 184.136719 164.578125 184.515625 164.574219 C 184.734375 164.570312 185.085938 164.5 184.921875 164.949219 C 184.910156 164.988281 184.988281 165.058594 185.027344 165.113281 C 185.070312 165.0625 185.15625 165.007812 185.152344 164.960938 C 185.109375 164.523438 185.382812 164.488281 185.703125 164.523438 C 186.351562 164.589844 187 164.679688 187.648438 164.722656 C 188.261719 164.761719 188.878906 164.742188 189.492188 164.765625 C 189.695312 164.773438 189.890625 164.832031 190.089844 164.867188 C 190.164062 164.882812 190.242188 164.929688 190.308594 164.910156 C 190.921875 164.742188 191.53125 164.714844 192.136719 164.953125 C 192.191406 164.976562 192.28125 164.972656 192.320312 164.941406 C 192.582031 164.75 192.777344 164.773438 192.890625 165.15625 C 193.089844 165.066406 193.257812 164.976562 193.4375 164.914062 C 193.523438 164.882812 193.632812 164.886719 193.726562 164.902344 C 193.75 164.90625 193.785156 165.042969 193.757812 165.070312 C 193.695312 165.140625 193.597656 165.183594 193.476562 165.265625 C 193.464844 165.417969 193.453125 165.632812 193.433594 165.941406 C 193.734375 165.738281 193.945312 165.59375 194.171875 165.441406 C 194.140625 165.375 194.097656 165.320312 194.089844 165.261719 C 194.082031 165.183594 194.097656 165.101562 194.097656 165.019531 C 194.183594 165.0625 194.3125 165.082031 194.34375 165.144531 C 194.652344 165.867188 195.335938 166.050781 195.972656 166.300781 C 196.097656 166.347656 196.214844 166.410156 196.332031 166.46875 C 196.640625 166.628906 196.953125 166.773438 197.246094 166.953125 C 197.574219 167.152344 197.851562 167.480469 198.199219 167.578125 C 198.621094 167.695312 198.859375 168.027344 199.210938 168.210938 C 199.417969 168.316406 199.691406 168.304688 199.882812 168.425781 C 200.042969 168.527344 200.207031 168.746094 200.214844 168.917969 C 200.226562 169.164062 200.253906 169.492188 199.816406 169.539062 C 199.542969 169.566406 199.316406 169.605469 199.035156 169.5 C 198.742188 169.394531 198.386719 169.46875 198.058594 169.472656 C 198.015625 169.472656 197.945312 169.515625 197.933594 169.554688 C 197.742188 170.179688 197.15625 170.050781 196.71875 170.210938 C 196.390625 170.332031 196.039062 170.484375 195.808594 170.726562 C 195.382812 171.167969 194.484375 171.160156 194.148438 170.648438 C 194.105469 170.585938 194.023438 170.554688 193.945312 170.496094 C 193.804688 171.0625 193.746094 171.109375 193.195312 171.085938 C 193.132812 171.082031 193.046875 171.050781 193.003906 171.082031 C 192.40625 171.503906 192 170.941406 191.511719 170.800781 C 191.457031 170.785156 191.421875 170.714844 191.296875 170.703125 C 191.34375 170.867188 191.390625 171.03125 191.460938 171.261719 C 191.324219 171.148438 191.242188 171.078125 191.199219 171.039062 C 190.96875 171.1875 190.765625 171.324219 190.566406 171.453125 C 190.429688 171.195312 190.347656 171.03125 190.261719 170.867188 C 190.214844 170.878906 190.171875 170.894531 190.125 170.90625 C 190.121094 171.066406 190.117188 171.226562 190.109375 171.46875 C 189.910156 171.449219 189.703125 171.40625 189.496094 171.414062 C 189.148438 171.429688 188.800781 171.480469 188.449219 171.5 C 188.050781 171.523438 187.675781 171.574219 187.335938 171.207031 C 187.019531 170.871094 187.128906 171.402344 186.96875 171.386719 C 186.621094 171.433594 186.273438 171.519531 185.929688 171.519531 C 185.691406 171.515625 185.457031 171.390625 185.222656 171.328125 C 185.125 171.300781 184.96875 171.253906 184.933594 171.292969 C 184.570312 171.738281 184.117188 171.484375 183.691406 171.46875 C 183.605469 171.46875 183.515625 171.476562 183.429688 171.492188 C 182.96875 171.5625 182.503906 171.632812 182.039062 171.710938 C 181.8125 171.746094 181.585938 171.828125 181.355469 171.832031 C 180.59375 171.839844 179.824219 171.882812 179.074219 171.792969 C 178.515625 171.722656 177.976562 171.789062 177.425781 171.800781 C 177.304688 171.804688 177.179688 171.722656 177.054688 171.714844 C 176.566406 171.683594 176.03125 171.492188 175.613281 171.566406 C 175.207031 171.640625 174.789062 171.703125 174.378906 171.71875 C 173.789062 171.746094 173.195312 171.699219 172.601562 171.671875 C 172.082031 171.644531 171.5625 171.613281 171.042969 171.5625 C 170.773438 171.535156 170.507812 171.453125 170.234375 171.410156 C 170.0625 171.386719 169.882812 171.386719 169.703125 171.378906 C 169.640625 171.378906 169.554688 171.417969 169.511719 171.390625 C 169.101562 171.101562 168.605469 171.164062 168.148438 171.078125 C 167.878906 171.027344 167.59375 171.058594 167.320312 171.03125 C 166.710938 170.980469 166.109375 170.902344 165.5 170.855469 C 164.273438 170.761719 163.046875 170.703125 161.824219 170.589844 C 160.753906 170.492188 159.6875 170.351562 158.625 170.210938 C 158.347656 170.171875 158.082031 170.042969 157.808594 169.964844 C 157.742188 169.941406 157.664062 169.949219 157.59375 169.953125 C 157.488281 169.964844 157.386719 170.015625 157.289062 170.007812 C 156.71875 169.960938 156.148438 169.894531 155.578125 169.84375 C 155.425781 169.832031 155.269531 169.867188 155.117188 169.855469 C 154.746094 169.828125 154.378906 169.785156 154.011719 169.742188 C 153.972656 169.738281 153.929688 169.691406 153.90625 169.699219 C 153.199219 169.976562 152.503906 169.714844 151.828125 169.589844 C 151.148438 169.464844 150.484375 169.175781 149.851562 168.875 C 149.429688 168.675781 149.445312 168.316406 149.804688 167.992188 C 150.316406 167.542969 150.316406 167.289062 149.808594 166.84375 C 149.707031 166.757812 149.59375 166.6875 149.503906 166.59375 C 149.414062 166.503906 149.316406 166.402344 149.277344 166.285156 C 149.15625 165.902344 149.640625 165.078125 150.042969 165.019531 C 151.296875 164.839844 152.550781 164.683594 153.808594 164.519531 C 154.261719 164.457031 154.71875 164.375 155.175781 164.34375 C 155.492188 164.324219 155.8125 164.375 156.253906 164.402344 C 156.597656 164.113281 157.910156 164.082031 158.175781 164.410156 C 158.359375 164.347656 158.515625 164.242188 158.675781 164.246094 C 159.324219 164.257812 159.976562 164.324219 160.625 164.335938 C 161.101562 164.34375 161.582031 164.265625 162.054688 164.300781 C 162.347656 164.320312 162.632812 164.46875 162.914062 164.578125 C 163.003906 164.609375 163.070312 164.691406 163.214844 164.804688 Z M 172.324219 170.609375 C 172.402344 170.019531 172.363281 169.964844 171.835938 169.976562 C 171.695312 169.976562 171.558594 170.074219 171.414062 170.105469 C 171.308594 170.125 171.195312 170.121094 171.089844 170.101562 C 170.675781 170.011719 170.261719 169.859375 169.839844 169.835938 C 169.5 169.816406 169.191406 169.8125 168.882812 169.636719 C 168.492188 169.414062 168.203125 169.488281 167.957031 169.84375 C 167.761719 169.734375 167.574219 169.582031 167.359375 169.519531 C 167.050781 169.433594 166.722656 169.398438 166.398438 169.378906 C 166.328125 169.375 166.25 169.535156 166.171875 169.621094 C 166.261719 169.683594 166.339844 169.773438 166.4375 169.796875 C 166.824219 169.878906 167.21875 169.941406 167.609375 170.003906 C 167.757812 170.027344 167.921875 169.992188 168.050781 170.046875 C 168.382812 170.183594 168.695312 170.417969 169.058594 170.105469 C 169.109375 170.0625 169.261719 170.117188 169.355469 170.152344 C 169.523438 170.214844 169.6875 170.296875 169.855469 170.371094 C 170.1875 170.519531 170.503906 170.582031 170.648438 170.257812 C 170.90625 170.378906 171.136719 170.488281 171.378906 170.605469 C 171.722656 169.898438 171.992188 170.582031 172.320312 170.609375 Z M 171.605469 168.738281 C 171.394531 168.386719 170.136719 168.128906 169.882812 168.378906 C 170.425781 168.644531 170.96875 168.777344 171.605469 168.738281 Z M 166.929688 168.203125 C 167.054688 168.253906 167.097656 168.285156 167.148438 168.289062 C 167.460938 168.332031 167.773438 168.375 168.085938 168.402344 C 168.132812 168.40625 168.226562 168.339844 168.230469 168.304688 C 168.230469 168.238281 168.195312 168.117188 168.152344 168.109375 C 167.8125 168.035156 167.46875 167.972656 167.121094 167.9375 C 167.070312 167.933594 167.003906 168.09375 166.929688 168.203125 Z M 190.386719 165.792969 C 190.378906 165.578125 190.429688 165.34375 190.359375 165.296875 C 190.1875 165.1875 189.960938 165.148438 189.75 165.113281 C 189.691406 165.105469 189.59375 165.203125 189.558594 165.273438 C 189.539062 165.3125 189.589844 165.417969 189.640625 165.460938 C 189.769531 165.5625 189.910156 165.65625 190.058594 165.730469 C 190.132812 165.773438 190.234375 165.769531 190.386719 165.792969 Z M 180.96875 165.644531 C 180.753906 165.457031 180.585938 165.300781 180.40625 165.167969 C 180.359375 165.132812 180.238281 165.132812 180.203125 165.167969 C 180.164062 165.207031 180.160156 165.320312 180.183594 165.375 C 180.277344 165.570312 180.390625 165.753906 180.507812 165.96875 C 180.648438 165.871094 180.75 165.800781 180.96875 165.644531 Z M 174.457031 165.148438 C 174.65625 165.34375 174.847656 165.546875 175.050781 165.730469 C 175.09375 165.765625 175.214844 165.761719 175.257812 165.726562 C 175.300781 165.691406 175.3125 165.59375 175.300781 165.527344 C 175.230469 165.042969 174.832031 165.136719 174.460938 165.148438 Z M 171.867188 168.539062 C 172.234375 169.03125 172.445312 168.984375 173.042969 168.808594 C 172.710938 168.660156 172.414062 168.519531 172.101562 168.402344 C 172.054688 168.382812 171.960938 168.480469 171.867188 168.539062 Z M 183.671875 164.945312 C 183.632812 165.203125 183.609375 165.390625 183.570312 165.65625 C 183.792969 165.550781 183.90625 165.496094 183.988281 165.457031 C 184.128906 165.570312 184.238281 165.660156 184.347656 165.75 C 184.382812 165.710938 184.417969 165.667969 184.453125 165.625 C 184.230469 165.429688 184.007812 165.234375 183.675781 164.945312 Z M 169.410156 168.453125 C 169.328125 168.015625 168.933594 168.199219 168.71875 168.070312 C 168.660156 168.035156 168.511719 168.152344 168.402344 168.199219 C 168.414062 168.222656 168.429688 168.25 168.441406 168.273438 C 168.75 168.328125 169.058594 168.386719 169.410156 168.453125 Z M 175.871094 165.277344 C 175.8125 165.300781 175.753906 165.324219 175.695312 165.347656 C 175.75 165.46875 175.789062 165.605469 175.863281 165.707031 C 175.898438 165.753906 176.015625 165.746094 176.089844 165.765625 C 176.015625 165.601562 175.945312 165.4375 175.871094 165.277344 Z M 177.113281 165.40625 C 177.167969 165.425781 177.21875 165.449219 177.273438 165.46875 C 177.398438 165.445312 177.527344 165.425781 177.648438 165.390625 C 177.65625 165.386719 177.636719 165.191406 177.613281 165.1875 C 177.488281 165.160156 177.347656 165.148438 177.226562 165.179688 C 177.171875 165.195312 177.152344 165.328125 177.113281 165.40625 Z M 154.976562 169.125 C 155.128906 169.0625 155.242188 169.015625 155.449219 168.929688 C 155.171875 168.808594 154.988281 168.726562 154.734375 168.621094 C 154.832031 168.820312 154.894531 168.953125 154.976562 169.125 Z M 154.976562 169.125 " fill-opacity="1" fill-rule="nonzero"/></g></g></g><g clip-path="url(#5ce8ff7eef)"><g clip-path="url(#adb1494d10)"><g clip-path="url(#1824111ce9)"><path fill="#ed9819" d="M 147.851562 193.847656 C 148.304688 194.132812 148.75 194.433594 149.214844 194.691406 C 149.6875 194.957031 150.179688 195.179688 150.6875 195.433594 C 150.765625 195.265625 150.8125 195.164062 150.875 195.027344 C 151.132812 195.144531 151.414062 195.195312 151.40625 195.589844 C 151.40625 195.800781 152.007812 196.234375 152.3125 196.269531 C 152.308594 196.21875 152.300781 196.175781 152.300781 196.128906 C 152.304688 196.039062 152.308594 195.945312 152.328125 195.859375 C 152.332031 195.84375 152.457031 195.828125 152.464844 195.839844 C 152.511719 195.925781 152.554688 196.019531 152.570312 196.113281 C 152.589844 196.242188 152.53125 196.457031 152.59375 196.492188 C 152.78125 196.609375 153.003906 196.707031 153.21875 196.71875 C 153.65625 196.734375 154.058594 196.777344 154.382812 197.109375 C 154.476562 197.199219 154.621094 197.253906 154.75 197.300781 C 155.023438 197.394531 155.328125 197.4375 155.574219 197.574219 C 155.679688 197.632812 155.679688 197.878906 155.726562 198.039062 C 155.824219 198.125 155.957031 198.214844 156.046875 198.335938 C 156.285156 198.652344 156.644531 198.753906 157 198.578125 C 157.234375 198.464844 157.785156 198.648438 158.007812 198.941406 C 157.859375 198.953125 157.730469 198.9375 157.613281 198.976562 C 157.546875 198.996094 157.503906 199.09375 157.449219 199.15625 C 157.515625 199.199219 157.605469 199.292969 157.644531 199.273438 C 157.800781 199.203125 158.054688 199.375 158.144531 199.082031 C 158.152344 199.058594 158.484375 199.082031 158.621094 199.160156 C 159.21875 199.492188 159.792969 199.859375 160.386719 200.203125 C 160.679688 200.375 160.769531 200.558594 160.695312 200.945312 C 160.988281 201.199219 161.273438 201.449219 161.566406 201.695312 C 161.898438 201.984375 162.039062 202.003906 162.578125 201.800781 C 162.445312 202.226562 162.703125 202.421875 163.03125 202.605469 C 163.246094 202.359375 163.394531 202.480469 163.546875 202.722656 C 163.917969 203.3125 164.46875 203.699219 165.070312 204.027344 C 165.417969 204.21875 165.75 204.449219 166.101562 204.625 C 166.328125 204.742188 166.582031 204.800781 166.882812 204.902344 C 167.140625 205.859375 167.910156 206.304688 168.960938 206.4375 C 168.570312 207.066406 169.261719 207.101562 169.492188 207.371094 C 169.730469 207.640625 170.082031 207.828125 170.414062 208.003906 C 170.488281 208.046875 170.667969 207.890625 170.832031 207.808594 C 170.832031 207.816406 170.878906 207.929688 170.851562 208.023438 C 170.777344 208.285156 170.859375 208.324219 171.101562 208.28125 C 171.261719 208.253906 171.433594 208.296875 171.660156 208.316406 C 171.546875 208.457031 171.46875 208.550781 171.429688 208.597656 C 171.84375 208.769531 172.257812 208.933594 172.664062 209.117188 C 172.75 209.15625 172.855469 209.25 172.867188 209.328125 C 172.90625 209.59375 173.074219 209.6875 173.296875 209.773438 C 173.742188 209.941406 174.015625 210.351562 174.375 210.609375 C 174.78125 210.902344 175.0625 211.445312 175.675781 211.425781 C 175.773438 211.421875 175.910156 211.457031 175.964844 211.527344 C 176.273438 211.898438 176.703125 212.058594 177.117188 212.265625 C 177.410156 212.410156 177.65625 212.65625 177.914062 212.871094 C 178.101562 213.027344 178.214844 213.28125 178.566406 213.128906 C 178.671875 213.082031 178.90625 213.320312 179.082031 213.433594 C 179.363281 213.609375 179.652344 213.773438 179.933594 213.960938 C 180.1875 214.128906 180.5 214.273438 180.324219 214.734375 C 180.554688 214.710938 180.726562 214.691406 180.898438 214.671875 C 180.914062 214.691406 180.929688 214.710938 180.945312 214.726562 C 180.859375 214.78125 180.769531 214.828125 180.695312 214.894531 C 180.527344 215.050781 180.152344 215.148438 180.515625 215.480469 C 180.539062 215.503906 180.503906 215.664062 180.472656 215.675781 C 179.996094 215.789062 180.152344 216.191406 180.085938 216.496094 C 180.066406 216.589844 179.992188 216.707031 179.910156 216.742188 C 179.605469 216.882812 179.292969 217.035156 178.964844 217.113281 C 178.78125 217.15625 178.566406 217.0625 178.367188 217.03125 C 178.363281 217.609375 178.507812 217.722656 179.101562 217.742188 C 179.554688 217.757812 179.585938 218.132812 179.640625 218.507812 C 179.507812 218.480469 179.402344 218.460938 179.296875 218.4375 C 179.3125 218.472656 179.328125 218.507812 179.34375 218.542969 C 179.023438 218.703125 178.703125 218.867188 178.378906 219.023438 C 178.324219 219.046875 178.214844 219.0625 178.1875 219.03125 C 177.863281 218.65625 177.355469 218.867188 176.976562 218.640625 C 176.617188 218.429688 176.179688 218.347656 175.8125 218.144531 C 175.195312 217.796875 174.609375 217.390625 173.996094 217.023438 C 173.53125 216.746094 173.039062 216.515625 172.570312 216.238281 C 172.074219 215.941406 171.597656 215.613281 171.113281 215.296875 C 170.992188 215.222656 170.875 215.148438 170.753906 215.078125 C 170.480469 214.910156 170.195312 214.757812 169.925781 214.578125 C 169.4375 214.25 168.941406 213.921875 168.46875 213.566406 C 168.042969 213.242188 167.664062 212.859375 167.234375 212.542969 C 166.972656 212.347656 166.652344 212.230469 166.371094 212.0625 C 166.242188 211.988281 166.097656 211.898438 166.019531 211.777344 C 165.8125 211.449219 165.597656 211.175781 165.1875 211.0625 C 164.957031 210.996094 164.78125 210.753906 164.503906 210.53125 C 164.421875 210.488281 164.214844 210.433594 164.085938 210.300781 C 163.707031 209.902344 163.28125 209.601562 162.78125 209.34375 C 162.210938 209.050781 161.738281 208.566406 161.214844 208.171875 C 161.011719 208.015625 160.800781 207.871094 160.578125 207.738281 C 160.117188 207.457031 159.667969 207.15625 159.183594 206.921875 C 158.664062 206.671875 158.226562 206.34375 157.804688 205.957031 C 157.523438 205.695312 157.050781 205.652344 156.683594 205.46875 C 156.355469 205.300781 156.050781 205.078125 155.738281 204.878906 C 155.609375 204.796875 155.488281 204.695312 155.351562 204.621094 C 154.746094 204.292969 154.140625 203.96875 153.53125 203.644531 C 153.507812 203.632812 153.472656 203.625 153.464844 203.605469 C 153.132812 202.765625 152.140625 202.84375 151.59375 202.273438 C 151.339844 202.007812 150.917969 201.910156 150.582031 201.722656 C 150.332031 201.585938 150.097656 201.433594 149.855469 201.285156 C 149.824219 201.265625 149.800781 201.222656 149.765625 201.210938 C 148.964844 200.933594 148.425781 200.242188 147.675781 199.878906 C 147.621094 199.851562 147.550781 199.808594 147.5 199.816406 C 147.132812 199.886719 146.984375 199.605469 146.765625 199.410156 C 146.484375 199.15625 146.160156 198.941406 145.832031 198.757812 C 145.214844 198.410156 144.570312 198.117188 143.960938 197.761719 C 143.730469 197.628906 143.585938 197.40625 143.269531 197.324219 C 142.933594 197.238281 142.664062 196.898438 142.34375 196.707031 C 142.113281 196.566406 141.84375 196.492188 141.597656 196.378906 C 141.269531 196.230469 140.933594 196.09375 140.625 195.910156 C 140.03125 195.554688 139.457031 195.164062 138.863281 194.808594 C 138.679688 194.699219 138.460938 194.652344 138.253906 194.589844 C 137.445312 194.351562 136.871094 193.761719 136.21875 193.285156 C 136.074219 193.175781 135.910156 193.089844 135.761719 192.984375 C 135.679688 192.929688 135.550781 192.867188 135.535156 192.789062 C 135.417969 192.199219 135.023438 191.855469 134.558594 191.515625 C 134.269531 191.304688 134.09375 190.941406 133.882812 190.636719 C 133.855469 190.601562 133.898438 190.449219 133.933594 190.4375 C 134.046875 190.40625 134.230469 190.359375 134.285156 190.417969 C 134.476562 190.605469 134.664062 190.65625 134.921875 190.59375 C 135.007812 190.570312 135.128906 190.667969 135.230469 190.722656 C 135.386719 190.804688 135.539062 190.898438 135.710938 190.996094 C 135.765625 190.855469 135.785156 190.695312 135.835938 190.6875 C 136.238281 190.625 136.316406 190.324219 136.414062 189.996094 C 136.503906 189.699219 136.710938 189.574219 137.058594 189.652344 C 137.277344 189.703125 137.527344 189.613281 137.761719 189.597656 C 137.84375 189.589844 137.929688 189.59375 138.007812 189.609375 C 138.082031 189.621094 138.152344 189.671875 138.226562 189.679688 C 138.78125 189.734375 139.347656 189.738281 139.886719 189.851562 C 140.449219 189.964844 140.992188 190.179688 141.539062 190.363281 C 141.957031 190.5 142.367188 190.660156 142.785156 190.808594 C 143.132812 190.9375 143.484375 191.054688 143.828125 191.199219 C 144.144531 191.328125 144.464844 191.46875 144.757812 191.644531 C 144.851562 191.703125 144.875 191.894531 144.917969 192.027344 C 144.949219 192.136719 144.957031 192.257812 144.976562 192.371094 C 145.09375 192.320312 145.238281 192.292969 145.328125 192.207031 C 145.582031 191.949219 145.78125 192.222656 145.992188 192.269531 C 146.148438 192.308594 146.277344 192.445312 146.417969 192.542969 C 146.222656 193.058594 146.234375 193.035156 146.78125 193.21875 C 147.078125 193.320312 147.332031 193.550781 147.609375 193.71875 C 147.691406 193.765625 147.785156 193.800781 147.875 193.839844 L 147.867188 193.839844 Z M 147.851562 193.847656 " fill-opacity="1" fill-rule="nonzero"/></g></g></g><g clip-path="url(#f819c125af)"><g clip-path="url(#7be4b3ce7c)"><g clip-path="url(#2c8df74d86)"><path fill="#ed9819" d="M 196.355469 165.578125 C 196.230469 165.558594 196.105469 165.535156 195.949219 165.507812 C 195.953125 165.664062 195.957031 165.753906 195.957031 165.84375 C 195.933594 165.855469 195.90625 165.867188 195.878906 165.878906 C 195.71875 165.648438 195.554688 165.417969 195.390625 165.1875 L 195.476562 165.109375 C 195.777344 165.226562 196.078125 165.34375 196.378906 165.464844 C 196.371094 165.5 196.363281 165.539062 196.355469 165.578125 Z M 196.355469 165.578125 " fill-opacity="1" fill-rule="nonzero"/></g></g></g><g clip-path="url(#e7a58fda64)"><g clip-path="url(#a26e076675)"><g clip-path="url(#ddce39b75c)"><path fill="#ed9819" d="M 149.46875 194.203125 C 149.640625 194.285156 149.816406 194.367188 149.988281 194.449219 C 149.984375 194.492188 149.976562 194.539062 149.96875 194.582031 C 149.832031 194.609375 149.671875 194.691406 149.566406 194.648438 C 149.464844 194.601562 149.421875 194.425781 149.351562 194.304688 C 149.390625 194.269531 149.429688 194.238281 149.464844 194.207031 Z M 149.46875 194.203125 " fill-opacity="1" fill-rule="nonzero"/></g></g></g><g clip-path="url(#72e7d4ce86)"><g clip-path="url(#ba0e39ca71)"><g clip-path="url(#c79f29437a)"><path fill="#ed9819" d="M 147.863281 193.851562 C 147.855469 193.691406 147.847656 193.527344 147.835938 193.234375 C 148.03125 193.375 148.171875 193.472656 148.308594 193.574219 C 148.15625 193.667969 148.007812 193.757812 147.855469 193.851562 C 147.855469 193.851562 147.863281 193.851562 147.863281 193.851562 Z M 147.863281 193.851562 " fill-opacity="1" fill-rule="nonzero"/></g></g></g><g clip-path="url(#9eea065f58)"><path fill="#ed9819" d="M 115.820312 127.03125 C 115.5625 126.265625 115.03125 125.355469 114.339844 124.6875 C 113.835938 124.207031 113.246094 123.851562 112.628906 123.726562 C 111.53125 123.515625 110.695312 123.8125 109.757812 124.34375 C 107.761719 125.476562 106.75 127.425781 106.257812 129.617188 C 106.011719 130.703125 105.898438 131.847656 105.839844 132.96875 C 105.519531 132.316406 105.074219 131.726562 104.433594 131.257812 C 103.386719 130.492188 101.84375 130.308594 100.378906 130.589844 C 98.925781 130.875 97.558594 131.601562 96.792969 132.585938 C 95.300781 134.511719 95.929688 136.988281 97.558594 139.453125 C 99.75 142.78125 103.71875 146.070312 105.269531 147.621094 C 105.8125 148.164062 107.574219 150.507812 108.574219 151.371094 C 108.832031 151.589844 109.054688 151.726562 109.238281 151.777344 C 109.414062 151.835938 109.574219 151.835938 109.707031 151.8125 C 109.84375 151.789062 110.027344 151.703125 110.214844 151.503906 C 110.359375 151.332031 110.558594 151.011719 110.769531 150.566406 C 111.765625 148.449219 113.34375 143.285156 113.503906 142.679688 C 114.132812 140.375 115.117188 137.777344 115.746094 135.125 C 116.398438 132.378906 116.671875 129.582031 115.820312 127.03125 Z M 114.488281 134.832031 C 113.859375 137.457031 112.875 140.054688 112.257812 142.347656 C 112.125 142.867188 110.929688 146.785156 109.980469 149.152344 C 109.792969 149.59375 109.558594 150.074219 109.398438 150.359375 C 109.289062 150.261719 109.152344 150.148438 109.054688 150.050781 C 108.042969 149.027344 106.664062 147.191406 106.195312 146.722656 C 104.679688 145.207031 100.785156 142.003906 98.628906 138.75 C 97.347656 136.828125 96.632812 134.90625 97.804688 133.402344 C 98.394531 132.636719 99.492188 132.09375 100.613281 131.871094 C 101.722656 131.664062 102.878906 131.75 103.667969 132.316406 C 104.59375 132.980469 104.902344 133.980469 105.222656 135.015625 C 105.332031 135.359375 105.503906 135.707031 105.789062 135.890625 C 105.800781 136.234375 106.085938 136.507812 106.429688 136.507812 C 106.789062 136.507812 107.082031 136.222656 107.082031 135.867188 C 107.082031 134.042969 107.070312 131.886719 107.503906 129.925781 C 107.921875 128.101562 108.710938 126.4375 110.375 125.488281 C 111.027344 125.121094 111.605469 124.875 112.371094 125.019531 C 112.75 125.09375 113.109375 125.328125 113.429688 125.636719 C 113.972656 126.15625 114.390625 126.871094 114.589844 127.460938 C 115.363281 129.765625 115.09375 132.316406 114.488281 134.832031 Z M 133.457031 137.050781 C 132.359375 135.792969 130.878906 135.976562 129.488281 136.9375 C 128.429688 137.664062 127.429688 138.859375 126.800781 139.980469 C 126.75 140.070312 126.703125 140.167969 126.652344 140.253906 C 126.566406 139.847656 126.457031 139.453125 126.285156 139.21875 C 124.496094 136.753906 120.824219 136.753906 119.589844 139.613281 C 119.050781 140.871094 119.445312 142.300781 120.292969 143.667969 C 121.402344 145.464844 123.289062 147.179688 124.199219 148.25 C 125.125 149.335938 125.730469 150.605469 126.566406 151.726562 C 126.589844 151.8125 126.652344 151.960938 126.703125 152.023438 C 126.800781 152.15625 126.925781 152.257812 127.058594 152.304688 C 127.230469 152.367188 127.464844 152.40625 127.761719 152.207031 C 128.28125 151.863281 129.105469 150.753906 129.96875 149.300781 C 131.878906 146.070312 134.109375 141.089844 134.21875 139.699219 C 134.28125 138.910156 133.984375 137.652344 133.457031 137.050781 Z M 132.925781 139.585938 C 132.828125 140.710938 131.226562 144.296875 129.648438 147.214844 C 129.007812 148.398438 128.378906 149.460938 127.824219 150.222656 C 127.6875 150.421875 127.554688 150.59375 127.441406 150.726562 C 126.664062 149.644531 126.0625 148.4375 125.175781 147.390625 C 124.300781 146.367188 122.464844 144.703125 121.390625 142.964844 C 120.785156 141.980469 120.394531 140.992188 120.773438 140.09375 C 121.589844 138.183594 124.054688 138.292969 125.234375 139.945312 C 125.320312 140.070312 125.347656 140.277344 125.382812 140.488281 C 125.457031 140.855469 125.519531 141.226562 125.644531 141.496094 C 125.753906 141.757812 125.902344 141.941406 126.085938 142.050781 L 126.085938 142.101562 C 126.085938 142.460938 126.371094 142.742188 126.726562 142.742188 C 127.085938 142.742188 127.367188 142.460938 127.367188 142.101562 C 127.367188 141.695312 127.589844 141.152344 127.910156 140.574219 C 128.453125 139.613281 129.289062 138.589844 130.203125 137.972656 C 131.003906 137.429688 131.855469 137.160156 132.46875 137.875 C 132.828125 138.28125 132.964844 139.082031 132.925781 139.585938 Z M 139.554688 120.226562 C 138.925781 119.5625 137.820312 119.289062 136.511719 119.414062 C 134.945312 119.550781 133.0625 120.214844 131.570312 121.039062 C 131.890625 120.003906 131.914062 118.75 131.816406 117.761719 C 131.410156 113.707031 126.542969 112.5 123.917969 115.320312 C 122.5625 116.789062 121.847656 118.734375 121.464844 120.84375 C 120.921875 123.839844 121.058594 127.164062 120.8125 129.753906 C 120.714844 130.789062 120.652344 131.835938 120.566406 132.859375 C 120.566406 132.957031 120.480469 133.15625 120.429688 133.363281 C 120.367188 133.597656 120.332031 133.820312 120.34375 134.003906 C 120.355469 134.277344 120.453125 134.484375 120.589844 134.621094 C 120.726562 134.757812 120.910156 134.84375 121.144531 134.84375 C 121.414062 134.84375 121.871094 134.621094 121.996094 134.558594 C 123.769531 133.488281 125.839844 132.808594 127.773438 132.046875 C 129.90625 131.195312 132.027344 130.148438 134.046875 129.039062 C 135.316406 128.335938 136.535156 127.597656 137.632812 126.648438 C 138.941406 125.515625 139.976562 124.21875 140.171875 122.421875 C 140.269531 121.410156 140.011719 120.71875 139.554688 120.226562 Z M 138.890625 122.261719 C 138.742188 123.703125 137.855469 124.726562 136.796875 125.648438 C 135.773438 126.550781 134.625 127.226562 133.429688 127.890625 C 131.460938 128.976562 129.390625 130 127.292969 130.835938 C 125.46875 131.566406 123.535156 132.21875 121.824219 133.167969 C 121.835938 133.09375 121.847656 133.019531 121.859375 132.980469 C 121.945312 131.960938 122.007812 130.910156 122.105469 129.890625 C 122.304688 127.746094 122.242188 125.09375 122.523438 122.554688 C 122.796875 120.152344 123.363281 117.835938 124.867188 116.210938 C 126.738281 114.1875 130.238281 115 130.535156 117.898438 C 130.632812 118.910156 130.621094 120.289062 130.117188 121.199219 C 129.929688 121.546875 129.523438 121.941406 129.253906 122.347656 C 128.96875 122.753906 128.796875 123.171875 128.796875 123.566406 C 128.796875 123.789062 128.910156 123.984375 129.082031 124.097656 C 129.128906 124.132812 129.179688 124.171875 129.230469 124.195312 C 129.550781 124.355469 129.929688 124.21875 130.089844 123.910156 C 130.351562 123.40625 131.015625 122.863281 131.867188 122.359375 C 133.246094 121.535156 135.09375 120.84375 136.609375 120.707031 C 137.449219 120.632812 138.199219 120.695312 138.605469 121.125 C 138.855469 121.375 138.941406 121.753906 138.890625 122.261719 Z M 138.890625 122.261719 " fill-opacity="1" fill-rule="nonzero"/></g><g clip-path="url(#e11fd06fd2)"><path fill="#ed9819" d="M 75.484375 153.542969 C 75.484375 153.542969 74.625 153.226562 74.203125 153.074219 C 72.296875 152.355469 70.28125 151.125 68.691406 149.851562 C 67.289062 148.730469 65.753906 147.132812 65.035156 145.445312 C 64.152344 143.386719 62.847656 139.117188 62.847656 136.960938 C 62.847656 136.636719 62.628906 136.351562 62.324219 136.265625 C 62.269531 136.179688 62.183594 136.089844 62.085938 136.039062 C 61.734375 135.832031 61.289062 135.949219 61.082031 136.296875 C 60.808594 136.765625 60.710938 137.355469 60.710938 137.984375 C 60.710938 138.726562 60.875 139.542969 60.910156 140.140625 C 61.136719 143.363281 58.621094 146.316406 56.445312 148.394531 C 54.234375 150.507812 51.089844 152.488281 48.171875 153.390625 C 47.605469 153.566406 47.015625 153.773438 46.515625 154.078125 C 46.449219 154.109375 46.320312 154.175781 46.320312 154.175781 C 46.035156 154.304688 45.863281 154.601562 45.894531 154.90625 C 45.929688 155.21875 46.144531 155.472656 46.449219 155.546875 C 46.449219 155.546875 47.648438 155.839844 48.246094 155.960938 C 50.664062 156.441406 52.839844 157.441406 54.417969 159.378906 C 56.75 162.253906 57.675781 165.355469 58.710938 168.839844 C 59.070312 170.070312 59.199219 171.367188 59.363281 172.628906 L 59.363281 173.402344 C 59.363281 173.792969 59.679688 174.121094 60.070312 174.132812 C 60.460938 174.140625 60.800781 173.835938 60.820312 173.445312 C 60.820312 173.445312 60.855469 172.890625 60.820312 172.5625 C 60.820312 171.878906 60.84375 171.203125 60.886719 170.527344 C 61.117188 166.902344 62.726562 163.601562 65.066406 160.828125 C 67.308594 158.160156 70.585938 155.613281 74.113281 155.164062 C 74.539062 155.113281 75.378906 154.960938 75.378906 154.960938 C 75.703125 154.894531 75.945312 154.632812 75.976562 154.296875 C 75.988281 153.96875 75.792969 153.652344 75.484375 153.542969 Z M 63.933594 159.878906 C 62.007812 162.167969 60.558594 164.769531 59.851562 167.597656 C 58.851562 164.257812 57.816406 161.25 55.542969 158.453125 C 53.863281 156.386719 51.589844 155.230469 49.050781 154.644531 C 52.035156 153.628906 55.203125 151.605469 57.457031 149.449219 C 59.515625 147.492188 61.734375 144.789062 62.269531 141.828125 C 62.714844 143.429688 63.25 144.976562 63.683594 146.011719 C 64.5 147.902344 66.1875 149.722656 67.777344 150.984375 C 69.171875 152.097656 70.871094 153.183594 72.570312 153.957031 C 69.203125 154.839844 66.113281 157.289062 63.933594 159.878906 Z M 63.933594 159.878906 " fill-opacity="1" fill-rule="nonzero"/></g></svg>